<?xml version="1.0" standalone="no"?>
<!DOCTYPE svg PUBLIC "-//W3C//DTD SVG 20010904//EN"
 "http://www.w3.org/TR/2001/REC-SVG-20010904/DTD/svg10.dtd">
<svg version="1.0" xmlns="http://www.w3.org/2000/svg"
 width="64.000000pt" height="64.000000pt" viewBox="0 0 64.000000 64.000000"
 preserveAspectRatio="xMidYMid meet">

<g transform="translate(0.000000,64.000000) scale(0.100000,-0.100000)"
fill="#124462" stroke="none">
<path d="M405 510 c-19 -20 -18 -21 35 -75 l54 -55 24 23 c27 27 21 57 -19 94
-37 33 -71 38 -94 13z m80 -36 c27 -29 33 -54 12 -54 -16 0 -67 52 -67 68 0
21 30 13 55 -14z"/>
<path d="M257 362 c-106 -107 -108 -110 -127 -183 -11 -41 -20 -75 -20 -76 0
0 32 7 72 17 70 19 74 21 185 132 l113 113 -52 52 c-29 29 -55 53 -58 53 -3 0
-54 -49 -113 -108z m51 -39 c-72 -72 -98 -92 -112 -87 -15 6 -1 24 80 105 78
78 101 96 112 87 11 -9 -5 -29 -80 -105z m129 51 c4 -11 -23 -45 -88 -110 -86
-86 -95 -93 -103 -74 -8 18 3 34 80 111 49 49 92 89 97 89 4 0 10 -7 14 -16z
m-231 -179 c28 -28 26 -40 -10 -47 -36 -7 -47 4 -40 40 8 39 17 40 50 7z"/>
</g>
</svg>
