<svg xmlns="http://www.w3.org/2000/svg" xmlns:xlink="http://www.w3.org/1999/xlink" width="64" height="64" version="1.1" style="shape-rendering:geometricPrecision;text-rendering:geometricPrecision;image-rendering:optimizeQuality;fill-rule:evenodd;clip-rule:evenodd"><g><path style="opacity:.957" fill="#134561" d="M 26.5,10.5 C 45.4719,9.63808 53.9719,18.6381 52,37.5C 49.4416,41.4576 50.6083,43.1243 55.5,42.5C 55.5,43.8333 55.5,45.1667 55.5,46.5C 51.1667,46.5 46.8333,46.5 42.5,46.5C 42.5,41.8333 42.5,37.1667 42.5,32.5C 43.8333,32.5 45.1667,32.5 46.5,32.5C 46.3379,34.5273 46.5045,36.5273 47,38.5C 50.4318,27.5325 46.9318,19.6992 36.5,15C 32.1177,14.5431 27.7843,14.5431 23.5,15C 22.5494,14.2825 22.3828,13.4491 23,12.5C 24.3024,11.9152 25.469,11.2485 26.5,10.5 Z"/></g><g><path style="opacity:.965" fill="#124562" d="M 7.5,16.5 C 11.8333,16.5 16.1667,16.5 20.5,16.5C 20.5,21.1667 20.5,25.8333 20.5,30.5C 19.1667,30.5 17.8333,30.5 16.5,30.5C 16.6621,28.4727 16.4955,26.4727 16,24.5C 12.5682,35.4675 16.0682,43.3008 26.5,48C 30.8823,48.4569 35.2157,48.4569 39.5,48C 40.3366,49.0113 40.67,50.1779 40.5,51.5C 16.9649,54.6338 7.63156,44.6338 12.5,21.5C 10.9547,20.5481 9.28801,20.2148 7.5,20.5C 7.5,19.1667 7.5,17.8333 7.5,16.5 Z"/></g></svg>