<?xml version="1.0" standalone="no"?>
<!DOCTYPE svg PUBLIC "-//W3C//DTD SVG 20010904//EN"
 "http://www.w3.org/TR/2001/REC-SVG-20010904/DTD/svg10.dtd">
<svg version="1.0" xmlns="http://www.w3.org/2000/svg"
 width="1000.000000pt" height="1000.000000pt" viewBox="0 0 1000.000000 1000.000000"
 preserveAspectRatio="xMidYMid meet">

<g transform="translate(0.000000,1000.000000) scale(0.100000,-0.100000)"
fill="#000000" stroke="none">
<path d="M5393 9173 c-12 -38 -18 -90 -18 -153 0 -91 2 -99 42 -182 23 -48 74
-137 113 -198 119 -186 125 -201 126 -365 0 -101 5 -158 18 -205 12 -43 16
-83 13 -118 -11 -109 -102 -248 -192 -295 -67 -35 -131 -28 -254 27 -148 67
-218 72 -278 22 -16 -14 -41 -28 -56 -31 -43 -11 -31 -20 21 -17 68 5 91 -17
161 -158 68 -136 97 -178 153 -219 l40 -30 -34 -14 c-21 -9 -60 -46 -102 -96
-72 -87 -115 -121 -156 -121 -28 0 -82 29 -120 65 -36 34 -92 55 -145 55 -44
0 -164 -30 -288 -71 -31 -10 -76 -19 -99 -19 -37 0 -47 6 -94 54 -64 66 -110
91 -198 106 -82 15 -152 4 -295 -45 -169 -58 -234 -46 -347 66 -52 51 -79 71
-105 75 -42 7 -82 -17 -61 -37 9 -10 15 -10 24 -1 24 24 51 11 122 -57 130
-125 186 -136 376 -71 111 38 136 43 220 44 127 1 158 -11 241 -95 50 -52 73
-69 94 -69 15 0 109 23 208 51 231 66 263 63 372 -31 35 -30 55 -40 81 -40 50
0 107 33 151 87 122 149 137 158 256 143 116 -14 139 -29 208 -132 42 -62 71
-94 95 -105 18 -9 34 -21 34 -27 -1 -29 -32 -61 -85 -90 -84 -45 -101 -71 -98
-157 3 -85 -9 -117 -78 -211 -64 -86 -95 -104 -155 -89 -74 19 -79 16 -143
-67 -160 -211 -272 -253 -444 -168 -45 22 -81 34 -92 30 -9 -4 -31 -39 -49
-78 -85 -185 -255 -242 -471 -156 -176 70 -240 53 -321 -86 -68 -117 -121
-129 -266 -64 -180 82 -235 76 -328 -31 -67 -77 -56 -91 13 -16 61 66 111 91
165 81 20 -4 81 -27 136 -51 85 -39 105 -45 150 -41 64 5 97 29 151 105 70
100 87 113 144 113 33 0 83 -12 148 -36 118 -44 222 -51 311 -21 72 25 149 98
186 176 16 33 37 63 46 66 9 3 47 -9 85 -26 54 -26 80 -32 134 -32 114 -1 189
44 297 179 35 45 72 88 82 95 10 8 8 3 -5 -11 -62 -72 -184 -297 -209 -388
-26 -92 -31 -495 -10 -705 16 -156 16 -171 1 -224 -35 -119 -105 -186 -232
-222 -153 -43 -214 -86 -289 -202 -16 -24 -48 -68 -72 -97 -85 -107 -106 -170
-162 -501 -39 -228 -65 -308 -142 -441 -93 -160 -151 -240 -236 -322 -77 -75
-217 -174 -289 -205 -24 -10 -32 -18 -23 -20 8 -3 22 -7 30 -9 8 -3 -10 -15
-43 -29 -64 -26 -142 -73 -134 -82 3 -3 32 11 64 31 32 19 75 42 95 51 36 14
37 14 57 -11 12 -15 21 -32 21 -38 -1 -6 -48 -33 -106 -61 -58 -27 -110 -55
-116 -62 -18 -22 -1 -27 27 -9 14 10 69 37 121 61 l94 44 40 -80 c52 -102 100
-155 153 -170 54 -14 99 -7 227 38 126 43 148 41 188 -19 50 -77 114 -134 167
-147 97 -24 189 17 375 168 158 129 222 141 360 71 78 -41 91 -44 160 -45 113
0 175 34 334 185 142 134 159 142 258 119 l59 -14 -138 -126 c-119 -109 -139
-124 -149 -110 -11 14 -15 14 -46 -1 -44 -22 -194 -163 -406 -383 -362 -376
-355 -370 -462 -411 l-95 -37 -165 -166 c-137 -137 -180 -175 -252 -216 -48
-27 -87 -56 -88 -62 0 -23 55 -14 104 17 108 69 326 167 339 153 10 -9 -19
-86 -73 -196 -49 -102 -52 -112 -48 -171 5 -87 60 -196 141 -282 80 -86 139
-116 240 -122 93 -6 100 7 30 53 -60 39 -83 83 -83 161 0 71 16 128 75 274 24
58 60 164 80 235 41 145 65 197 126 276 100 129 240 256 439 397 136 96 350
285 350 310 1 10 44 48 106 92 162 116 153 111 122 70 -33 -44 -129 -237 -169
-338 -16 -42 -59 -138 -95 -212 -35 -75 -67 -154 -71 -175 -3 -22 -16 -56 -29
-76 -12 -20 -35 -65 -49 -100 -21 -50 -47 -84 -115 -154 -97 -100 -107 -117
-180 -300 -55 -139 -71 -170 -137 -258 -36 -48 -42 -61 -33 -77 6 -11 12 -20
15 -20 2 0 32 37 68 82 63 82 209 228 226 228 18 0 22 -76 10 -200 -12 -118
-11 -131 6 -176 44 -119 244 -258 388 -271 37 -3 67 -2 67 2 0 5 -20 35 -45
67 -68 86 -92 146 -111 283 -12 91 -15 164 -11 305 5 173 7 190 35 270 97 276
161 408 297 610 80 120 235 404 235 431 0 4 -13 10 -30 14 -16 4 -30 8 -30 9
0 1 56 107 125 235 69 128 125 238 125 243 0 5 41 52 90 103 101 105 110 129
60 166 -23 18 -27 26 -20 40 17 31 12 49 -14 49 -13 0 -52 13 -87 29 -35 16
-129 52 -209 81 -80 29 -164 66 -187 81 -42 29 -70 38 -58 19 9 -14 3 -13 -57
11 -103 40 -247 112 -242 120 3 5 23 13 46 19 37 11 42 9 67 -14 32 -31 56
-33 71 -7 5 11 22 21 37 23 17 2 32 12 38 26 6 12 19 22 30 22 25 0 45 18 45
41 0 12 40 38 128 85 215 114 490 251 569 284 l75 31 48 -45 c78 -73 132 -74
138 -2 4 40 8 42 36 21 11 -8 35 -15 53 -15 39 0 68 36 61 75 -5 23 -2 25 33
25 49 0 108 28 115 55 5 20 -10 75 -21 75 -2 0 -2 -14 2 -30 7 -39 -16 -66
-69 -81 -32 -8 -44 -7 -63 5 -33 22 -35 21 -23 -18 31 -99 -40 -117 -131 -32
-37 34 -36 38 -16 -46 6 -21 2 -30 -19 -44 l-27 -17 -68 64 c-37 35 -74 74
-81 86 -15 26 -32 31 -132 39 l-76 7 11 24 c9 21 16 24 41 18 17 -3 69 -9 115
-12 63 -5 82 -3 77 5 -4 7 -16 12 -27 12 -35 0 -20 16 28 28 25 7 86 31 134
54 70 32 95 39 121 34 53 -10 65 -21 47 -42 -8 -10 -9 -15 -2 -11 6 4 25 -4
41 -18 16 -14 40 -25 52 -25 13 0 77 31 144 69 377 213 893 508 1041 594 94
55 194 114 224 131 30 17 56 36 58 43 2 6 -9 26 -24 43 l-29 32 -129 -67
c-158 -83 -306 -170 -485 -285 -216 -139 -410 -250 -640 -366 l-215 -109 -35
17 c-50 26 -90 22 -156 -13 -33 -17 -98 -46 -146 -65 l-87 -34 -103 15 c-126
19 -438 94 -561 135 -155 52 -220 93 -332 205 -129 129 -216 268 -214 342 1
49 3 47 14 -19 3 -21 10 -38 15 -38 10 0 15 27 25 124 12 104 25 40 19 -89 -5
-110 -4 -118 10 -101 9 11 16 31 16 45 0 14 5 33 10 41 7 11 10 5 10 -22 0
-40 10 -48 30 -23 17 20 27 145 11 145 -6 0 -12 -15 -12 -32 -2 -31 -2 -31 -6
-5 -5 30 -18 35 -31 11 -6 -11 -11 1 -15 43 -11 105 -32 122 -54 42 l-12 -44
5 50 c5 53 -6 110 -22 110 -5 0 -14 -47 -20 -105 -13 -118 -15 -98 -22 153 -1
48 -6 87 -11 87 -5 0 -12 -46 -16 -102 -5 -57 -10 -98 -11 -93 -2 6 -8 57 -13
115 l-10 105 4 -115 c4 -117 11 -160 26 -160 4 0 10 15 12 33 2 17 4 1 5 -38
l0 -70 -23 50 c-12 28 -44 112 -70 188 -26 76 -50 136 -52 134 -10 -11 115
-357 171 -472 130 -269 280 -417 511 -506 83 -32 492 -139 532 -139 28 0 28
-7 4 -39 -18 -23 -22 -24 -101 -17 -137 11 -359 53 -460 86 -116 38 -236 94
-244 115 -6 18 -2 19 25 5 16 -9 19 -7 19 11 0 20 1 20 32 -6 38 -32 166 -97
181 -92 6 2 -36 31 -94 66 -77 46 -114 76 -144 114 -30 39 -40 48 -43 34 -2
-10 6 -34 17 -53 12 -19 21 -38 21 -41 0 -12 -51 42 -86 89 -19 26 -41 45 -47
42 -8 -3 -34 39 -71 115 -32 66 -62 121 -66 123 -13 6 -99 234 -136 363 -21
72 -39 132 -41 134 -23 32 19 -162 56 -257 25 -63 41 -123 32 -117 -11 6 -66
154 -96 260 -37 126 -75 181 -67 95 4 -34 2 -39 -13 -34 -14 6 -13 -1 8 -42
22 -45 117 -313 117 -331 0 -4 -51 88 -114 206 -109 205 -156 281 -176 281 -5
0 7 -21 26 -47 19 -27 95 -163 168 -304 73 -140 159 -295 192 -345 85 -128
228 -268 329 -321 208 -108 440 -157 845 -179 69 -3 129 -9 134 -11 4 -3 -57
-39 -135 -80 -129 -67 -295 -140 -593 -260 l-98 -40 -47 16 c-57 20 -149 111
-222 219 -61 93 -72 104 -34 37 71 -125 157 -229 220 -266 l45 -26 -56 -26
-57 -25 -38 56 c-21 32 -94 113 -163 182 -70 69 -126 128 -126 131 0 4 11 6
25 5 17 -1 28 -9 34 -28 11 -32 26 -36 36 -10 5 13 9 10 19 -18 7 -23 17 -35
28 -34 11 1 21 -10 28 -32 17 -50 34 -56 26 -8 -9 46 -32 85 -48 81 -7 -1 -15
12 -18 28 -5 25 -10 30 -34 28 -26 -2 -27 0 -25 35 1 20 1 46 0 57 -2 20 -2
20 -16 1 -8 -11 -15 -31 -15 -45 0 -15 -4 -21 -9 -16 -5 6 -6 31 -1 60 11 65
12 115 2 115 -8 0 -22 -61 -39 -163 l-8 -48 -33 28 -34 28 25 65 c13 36 45
107 71 159 60 119 37 115 -26 -4 -26 -50 -47 -87 -48 -83 0 5 11 61 25 125 14
65 25 124 25 131 0 24 -16 11 -47 -40 l-31 -52 5 107 c3 59 2 107 -2 107 -5 0
-17 -8 -28 -18 -20 -16 -20 -16 -13 2 13 38 19 136 8 136 -14 0 -31 -29 -58
-100 l-22 -55 5 111 c4 70 2 113 -4 117 -6 4 -25 -26 -44 -68 l-34 -75 -5 112
c-3 67 -9 113 -15 112 -5 -1 -24 -30 -42 -65 l-32 -64 5 45 c6 53 -7 132 -22
137 -6 2 -21 -28 -34 -69 -64 -211 -143 -406 -170 -423 -25 -16 -6 65 39 163
56 120 111 267 111 294 0 37 -17 15 -53 -69 -48 -113 -88 -185 -106 -191 -22
-7 -7 39 56 168 52 108 123 267 123 276 0 2 -4 4 -10 4 -5 0 -10 -5 -10 -11 0
-6 -30 -73 -67 -148 -60 -121 -67 -132 -71 -104 -5 44 34 163 63 193 13 14 33
45 44 70 26 60 51 169 39 176 -4 3 -24 -27 -43 -68 -18 -40 -34 -68 -34 -63
-2 26 23 90 50 131 38 56 90 175 121 276 12 43 28 78 34 78 6 0 30 27 54 60
24 33 45 60 47 60 5 0 -3 -14 -37 -65 -66 -97 -85 -168 -26 -92 14 17 26 26
26 20 0 -22 16 -14 28 12 15 33 15 35 -2 35 -10 0 -3 20 25 67 21 37 39 73 39
80 0 34 -24 15 -86 -67 -42 -56 -71 -87 -77 -81 -5 5 -5 15 -1 24 16 27 165
182 158 164 -11 -29 2 -19 30 24 31 47 28 59 -9 35 l-26 -17 16 30 c15 30 15
31 -4 31 -19 0 -20 1 -3 33 9 17 18 33 19 35 2 5 83 -50 83 -57 0 -3 -9 -35
-21 -71 -24 -77 -26 -150 -5 -205 15 -40 16 -40 10 42 -8 99 5 157 58 272 42
94 44 117 3 47 -15 -25 -30 -46 -33 -46 -4 0 -37 21 -74 47 l-68 46 17 26 c54
83 66 115 70 190 5 96 14 113 73 145 l47 26 24 -26 c61 -66 115 -70 172 -13
l41 40 -30 20 c-42 28 -112 25 -158 -6 -41 -28 -44 -25 -17 13 10 15 21 36 25
47 5 17 23 24 89 38 109 23 121 22 232 -13 l94 -31 -6 -32 c-14 -76 -27 -102
-53 -105 -34 -4 -93 54 -70 68 22 14 31 12 28 -7 -4 -25 29 -28 37 -3 4 12 11
17 18 13 7 -4 6 1 -2 10 -18 23 -53 21 -84 -4 l-27 -20 40 -41 c31 -31 46 -39
65 -35 14 2 25 1 25 -3 0 -27 -34 -182 -49 -220 -31 -81 -139 -230 -167 -230
-7 0 -48 35 -92 78 -63 61 -89 97 -131 177 -28 55 -49 89 -45 75 16 -59 46
-130 74 -171 42 -63 148 -171 160 -164 6 4 18 1 26 -6 12 -10 22 -6 55 27 123
119 208 329 209 514 l0 75 73 1 c87 2 157 27 291 107 50 31 126 68 169 83 43
15 76 32 74 37 -2 6 -44 20 -93 33 -50 12 -108 31 -130 42 -21 11 -79 36 -128
56 -154 62 -179 95 -150 196 16 57 38 297 37 407 -1 163 -128 400 -312 584
-42 41 -141 124 -221 184 -284 214 -350 309 -350 505 0 33 -4 60 -10 60 -5 0
-17 -26 -27 -57z m26 -103 c1 -13 0 -13 -9 0 -5 8 -9 24 -9 35 l0 20 9 -20 c5
-11 9 -27 9 -35z m25 -148 c15 -37 42 -93 62 -123 35 -54 124 -222 124 -236 0
-10 -118 175 -146 229 -40 79 -82 198 -70 198 2 0 16 -31 30 -68z m176 -186
c0 -13 -98 83 -112 109 -6 11 17 -7 51 -40 33 -33 61 -64 61 -69z m45 -26 c3
-5 1 -10 -4 -10 -6 0 -11 5 -11 10 0 6 2 10 4 10 3 0 8 -4 11 -10z m-26 -44
c-3 -3 -11 5 -18 17 -13 21 -12 21 5 5 10 -10 16 -20 13 -22z m154 -55 c7 -8
-10 0 -36 19 -26 19 -53 41 -60 49 -7 8 10 0 36 -19 26 -19 53 -41 60 -49z m3
-161 c20 -69 38 -134 40 -145 8 -36 -37 68 -58 135 -11 36 -33 94 -49 130
l-30 65 30 -30 c24 -23 38 -58 67 -155z m35 133 c13 -16 12 -17 -3 -4 -10 7
-18 15 -18 17 0 8 8 3 21 -13z m-151 -61 c0 -15 -2 -15 -10 -2 -13 20 -13 33
0 25 6 -3 10 -14 10 -23z m86 -120 c-6 -5 -39 67 -49 108 -4 14 7 -4 24 -39
16 -35 28 -66 25 -69z m78 74 c14 -25 26 -48 26 -53 0 -9 -34 39 -56 81 -24
45 1 21 30 -28z m5 -73 c10 -19 9 -22 -4 -17 -8 4 -15 15 -15 27 0 23 2 22 19
-10z m71 -8 c0 -5 -5 -3 -10 5 -5 8 -10 20 -10 25 0 6 5 3 10 -5 5 -8 10 -19
10 -25z m197 -98 c61 -84 118 -177 111 -177 -3 0 -21 24 -41 53 -20 29 -52 68
-72 87 -19 18 -35 40 -35 47 0 8 -7 27 -15 43 -26 50 -10 34 52 -53z m-407 17
c0 -17 -4 -22 -15 -18 -9 4 -15 19 -15 36 0 26 2 29 15 18 8 -7 15 -23 15 -36z
m270 18 c0 -15 -2 -15 -10 -2 -13 20 -13 33 0 25 6 -3 10 -14 10 -23z m66 -69
c-4 -4 -11 -1 -16 7 -16 25 -11 35 7 17 9 -9 13 -20 9 -24z m-87 -112 c23 -91
26 -127 13 -135 -9 -6 -62 206 -62 245 l1 24 13 -25 c8 -14 23 -63 35 -109z
m-259 -1 c5 -57 8 -105 6 -107 -6 -6 -36 148 -36 189 0 79 20 25 30 -82z m130
10 c0 -10 16 -48 35 -85 28 -54 32 -71 24 -91 -5 -14 -16 -67 -24 -117 -8 -50
-19 -95 -25 -101 -22 -22 -22 8 -1 80 12 42 25 99 28 127 5 43 4 49 -9 45 -12
-5 -18 10 -30 82 -8 49 -11 87 -6 84 4 -3 8 -14 8 -24z m355 -31 c12 -23 13
-28 0 -32 -9 -4 -18 8 -29 40 -14 40 -14 44 0 32 8 -7 22 -25 29 -40z m-120
-37 c4 -20 9 -46 12 -57 3 -11 2 -17 -1 -13 -11 9 -35 118 -25 112 5 -2 11
-21 14 -42z m-41 3 c5 -22 4 -26 -4 -15 -5 8 -10 24 -10 34 0 26 6 18 14 -19z
m95 -87 c1 -16 -3 -28 -8 -28 -10 0 -21 70 -13 84 7 13 20 -22 21 -56z m67
-79 c11 -46 11 -63 -1 -105 -13 -48 -13 -48 -14 -13 -1 19 -5 60 -10 90 -5 30
-12 77 -15 104 l-5 50 16 -35 c8 -19 21 -60 29 -91z m-394 8 c-9 -18 -11 -10
-10 43 l0 65 11 -43 c7 -29 7 -49 -1 -65z m-78 -35 l-15 -27 5 25 c3 14 6 50
7 80 l1 55 9 -53 c7 -42 6 -59 -7 -80z m584 -42 c0 -65 -13 -16 -20 75 l-6 70
13 -50 c7 -27 13 -70 13 -95z m-318 -41 c-21 -121 -39 -180 -27 -87 4 29 2 48
-4 50 -13 4 7 129 29 178 15 34 16 34 19 9 2 -14 -5 -82 -17 -150z m-46 61
c-21 -111 -46 -200 -51 -178 -3 10 7 63 21 119 14 56 26 116 26 132 0 20 3 28
10 21 6 -6 4 -40 -6 -94z m-178 13 c-11 -11 -17 4 -9 23 7 18 8 18 11 1 2 -10
1 -21 -2 -24z m44 -43 c-25 -88 -41 -132 -47 -126 -3 3 9 48 27 101 36 108 48
123 20 25z m233 -37 c-16 -72 -20 -80 -29 -71 -3 3 -1 23 4 44 6 22 13 51 16
67 4 15 10 27 15 27 5 0 2 -30 -6 -67z m72 -28 c-8 -88 -13 -105 -31 -105 -19
0 -18 32 3 125 20 93 36 81 28 -20z m144 37 c7 -23 6 -34 -5 -43 -12 -10 -14
-4 -14 36 0 53 6 55 19 7z m-506 -24 c-14 -48 -27 -67 -45 -68 -11 0 4 43 29
83 13 20 25 37 27 37 2 0 -3 -24 -11 -52z m402 -77 c-5 -43 -10 -60 -16 -50
-12 19 -11 59 3 121 11 46 13 49 16 23 2 -16 1 -59 -3 -94z m47 -3 c-6 -6 -7
0 -4 19 5 21 7 23 10 9 2 -10 0 -22 -6 -28z m-568 -5 c-11 -15 -26 -29 -34
-31 -7 -3 0 11 16 31 32 41 48 41 18 0z m-579 -3 c-27 -12 -43 -12 -25 0 8 5
22 9 30 9 10 0 8 -3 -5 -9z m198 -46 c77 -32 132 -48 175 -52 76 -6 74 -12 -7
-18 -54 -4 -66 -1 -136 36 -42 22 -83 40 -92 40 -29 0 -92 23 -87 31 9 16 33
10 147 -37z m459 14 c-7 -7 -12 -8 -12 -2 0 14 12 26 19 19 2 -3 -1 -11 -7
-17z m-614 -13 c1 -1 -4 -7 -11 -14 -11 -8 -18 -6 -33 10 -18 20 -18 20 11 13
17 -4 31 -8 33 -9z m46 -16 c-3 -5 -14 -9 -26 -9 -17 0 -18 3 -8 14 12 15 44
10 34 -5z m759 -44 c-10 -27 -23 -50 -30 -52 -7 -3 -1 22 15 57 30 71 42 67
15 -5z m-129 4 c-11 -17 -30 -39 -43 -48 -24 -15 -24 -15 -11 9 15 30 62 82
68 75 2 -2 -4 -18 -14 -36z m-498 1 c2 0 4 -4 4 -8 0 -9 -82 -53 -88 -48 -1 2
3 16 10 31 10 23 10 29 0 33 -7 2 -10 8 -7 13 4 5 22 2 42 -6 19 -8 37 -15 39
-15z m779 -27 c-25 -68 -75 -166 -81 -160 -10 10 17 88 36 105 11 9 27 38 36
65 9 26 18 46 21 43 3 -3 -2 -27 -12 -53z m212 35 c-3 -8 -6 -5 -6 6 -1 11 2
17 5 13 3 -3 4 -12 1 -19z m-1121 -3 c-10 -8 -23 -12 -29 -8 -11 7 12 23 33
23 12 -1 11 -4 -4 -15z m549 -14 c-18 -35 -35 -48 -35 -27 0 13 36 56 47 56 2
0 -3 -13 -12 -29z m175 23 c0 -13 -54 -104 -62 -104 -4 0 -8 2 -8 5 0 11 31
79 41 92 12 13 29 18 29 7z m83 -19 c-3 -9 -8 -14 -10 -11 -3 3 -2 9 2 15 9
16 15 13 8 -4z m-826 -46 c6 -13 19 -46 28 -72 10 -27 33 -65 52 -85 19 -20
41 -49 49 -64 10 -20 22 -28 42 -28 16 0 33 -5 38 -10 8 -8 19 -7 39 0 23 9
31 7 46 -9 13 -13 38 -21 84 -26 60 -7 66 -10 71 -34 4 -14 17 -38 31 -52 13
-14 27 -39 32 -55 4 -16 16 -33 27 -38 22 -10 69 -65 62 -72 -11 -10 -62 43
-109 112 -67 100 -103 122 -223 139 -68 10 -103 20 -125 36 -39 29 -117 141
-166 238 -34 69 -35 74 -14 59 13 -8 29 -26 36 -39z m1060 -9 c-5 -40 -3 -50
8 -50 10 0 15 -10 14 -27 l0 -28 -16 23 c-18 25 -33 29 -33 7 0 -8 -5 -15 -11
-15 -6 0 -9 6 -6 13 2 6 13 38 23 70 10 31 20 57 22 57 3 0 2 -22 -1 -50z m63
3 c-11 -17 -11 -17 -6 0 3 10 7 26 7 35 1 15 2 15 6 0 2 -10 -1 -25 -7 -35z
m-922 28 c11 -6 7 -13 -14 -30 -41 -32 -59 -27 -32 9 24 33 26 34 46 21z m222
-3 c0 -9 -141 -148 -149 -148 -5 0 -23 -12 -40 -26 -24 -20 -31 -22 -31 -10 0
19 81 114 98 115 7 1 36 17 65 36 50 34 57 38 57 33z m225 -50 c-9 -26 -32
-56 -53 -73 l-37 -30 19 30 c59 92 81 123 85 120 2 -2 -4 -23 -14 -47z m196 9
c-8 -8 -11 -5 -11 9 0 27 14 41 18 19 2 -9 -1 -22 -7 -28z m-551 30 c0 -2 -14
-13 -31 -26 l-31 -23 17 26 c10 14 24 26 31 26 8 0 14 -1 14 -3z m205 -26 c-3
-11 -28 -48 -56 -82 -27 -34 -47 -64 -45 -66 2 -3 15 1 28 7 16 9 13 3 -12
-21 -20 -19 -42 -44 -50 -57 -13 -20 -17 -21 -34 -9 -18 13 -15 18 53 97 41
47 70 91 69 100 -2 10 8 27 22 38 29 23 34 22 25 -7z m435 -101 l-20 -45 4 60
c2 33 9 74 17 90 l14 30 3 -45 c2 -31 -4 -61 -18 -90z m-149 73 c-11 -21 -20
-32 -21 -25 0 17 30 75 36 69 3 -3 -4 -22 -15 -44z m-671 27 c0 -5 -8 -10 -17
-10 -15 0 -16 2 -3 10 19 12 20 12 20 0z m100 -3 c0 -2 -18 -21 -40 -42 -26
-26 -40 -34 -40 -23 0 8 17 27 38 41 39 27 42 29 42 24z m360 -48 c-12 -16
-25 -28 -27 -25 -8 8 25 56 38 56 6 0 1 -14 -11 -31z m-500 -23 c0 -12 -5 -7
-19 24 -11 24 -11 24 3 6 9 -11 16 -24 16 -30z m740 22 c-1 -7 -12 -26 -26
-43 l-26 -30 23 43 c24 44 29 50 29 30z m-580 -2 c0 -2 -8 -10 -17 -17 -16
-13 -17 -12 -4 4 13 16 21 21 21 13z m101 -85 c-49 -59 -67 -74 -81 -69 -11 3
37 55 90 97 37 30 36 26 -9 -28z m173 10 c-4 -18 -18 -40 -35 -52 -16 -11 -29
-18 -29 -15 0 8 64 105 68 102 1 -2 -1 -17 -4 -35z m536 -4 c0 -13 -6 -32 -14
-43 -13 -17 -14 -14 -4 24 12 47 18 54 18 19z m-905 3 c-3 -5 -11 -10 -16 -10
-6 0 -7 5 -4 10 3 6 11 10 16 10 6 0 7 -4 4 -10z m447 -12 c-7 -7 -12 -8 -12
-2 0 14 12 26 19 19 2 -3 -1 -11 -7 -17z m78 -22 c-12 -20 -23 -36 -26 -36 -6
0 16 53 28 67 21 26 20 4 -2 -31z m205 -62 c-25 -69 -40 -92 -51 -82 -5 6 27
99 52 152 31 63 30 14 -1 -70z m-100 32 c-28 -63 -29 -66 -17 -66 5 0 17 18
27 40 27 60 36 58 19 -2 -24 -81 -46 -113 -77 -113 -15 -1 -27 0 -27 2 0 10
63 159 76 179 27 40 26 21 -1 -40z m430 -33 c22 -13 71 -35 109 -49 l69 -27
-34 -18 c-28 -14 -35 -15 -37 -3 -4 18 -8 18 -41 -2 -26 -15 -29 -15 -49 2
-12 10 -22 24 -22 30 0 7 -8 11 -17 10 -12 0 -19 7 -21 22 -2 12 -8 22 -13 22
-5 0 -9 14 -9 31 0 26 -3 29 -20 24 -11 -4 -20 -2 -20 4 0 6 5 11 10 11 6 0
10 7 10 16 0 11 9 4 23 -17 12 -18 40 -44 62 -56z m-474 29 c-10 -21 -30 -74
-45 -119 -15 -46 -30 -83 -32 -83 -3 0 -3 19 -1 43 5 59 66 207 83 200 11 -4
10 -13 -5 -41z m-181 28 c0 -16 -108 -92 -126 -88 -11 2 7 19 52 50 80 54 74
51 74 38z m75 -22 c-7 -23 -45 -71 -52 -65 -1 2 5 22 14 45 17 44 50 61 38 20z
m436 -25 c-9 -16 -10 -16 -11 -1 0 9 3 25 7 35 7 16 8 17 11 1 2 -10 -1 -25
-7 -35z m-875 10 c-7 -7 -26 7 -26 19 0 6 6 6 15 -2 9 -7 13 -15 11 -17z m373
-12 c-7 -20 -15 -28 -25 -24 -18 7 -18 12 3 35 24 27 33 22 22 -11z m426 -42
c-23 -69 -30 -55 -9 17 9 33 19 53 21 47 3 -7 -3 -36 -12 -64z m-334 0 c-12
-19 -21 -30 -21 -26 0 14 31 69 36 64 3 -3 -4 -20 -15 -38z m287 -11 c-5 -24
-16 -50 -25 -58 -14 -13 -15 -13 -10 5 3 11 9 36 12 55 9 43 14 52 25 45 4 -3
4 -24 -2 -47z m177 14 c0 -18 -20 -15 -23 4 -3 10 1 15 10 12 7 -3 13 -10 13
-16z m-69 -18 c-9 -33 -38 -97 -31 -69 2 11 7 37 11 58 3 20 11 37 16 37 6 0
7 -11 4 -26z m-159 -16 c-3 -8 -6 -5 -6 6 -1 11 2 17 5 13 3 -3 4 -12 1 -19z
m211 -6 c17 -11 2 -47 -20 -48 -20 -2 -21 1 -12 34 7 24 12 26 32 14z m-112
-73 c-14 -62 -46 -119 -46 -84 0 19 51 147 57 142 1 -2 -4 -28 -11 -58z m529
14 c28 -9 57 -18 65 -21 23 -7 -38 -31 -83 -32 -24 0 -40 5 -43 15 -4 10 -14
13 -30 9 -14 -4 -24 -2 -23 2 3 20 -2 24 -21 14 -20 -10 -20 -10 -3 24 l16 35
36 -16 c20 -8 59 -22 86 -30z m-735 1 c-18 -21 -24 -10 -8 15 7 12 14 17 16
11 2 -6 -2 -17 -8 -26z m-242 -1 c-4 -22 -22 -20 -26 1 -2 10 3 16 13 16 10 0
15 -7 13 -17z m332 -5 c0 -23 -45 -88 -61 -88 -15 0 -10 19 17 66 28 48 44 56
44 22z m475 2 c-3 -5 -11 -10 -16 -10 -6 0 -7 5 -4 10 3 6 11 10 16 10 6 0 7
-4 4 -10z m-135 -9 c0 -6 -4 -13 -10 -16 -5 -3 -10 1 -10 9 0 9 5 16 10 16 6
0 10 -4 10 -9z m-495 -21 c-10 -11 -21 -20 -26 -20 -4 0 -5 9 -2 20 3 12 14
20 26 20 19 0 20 -1 2 -20z m351 -37 c-15 -28 -25 -40 -26 -29 0 20 39 90 47
83 2 -3 -7 -27 -21 -54z m-486 38 c0 -5 -3 -17 -6 -25 -6 -15 -8 -15 -19 1 -7
10 -11 21 -9 25 7 11 34 10 34 -1z m811 -49 c-10 -15 -29 -36 -42 -47 l-23
-20 17 28 c42 66 50 77 58 71 5 -3 1 -17 -10 -32z m-774 -8 c-9 -9 -28 6 -21
18 4 6 10 6 17 -1 6 -6 8 -13 4 -17z m90 -4 c-7 -19 -15 -26 -21 -20 -6 6 -3
17 9 30 24 27 25 25 12 -10z m431 -22 l-13 -23 -3 23 c-4 28 21 66 26 39 2 -9
-3 -26 -10 -39z m198 20 c-9 -12 -16 -19 -16 -15 0 11 24 47 28 42 2 -2 -3
-14 -12 -27z m114 28 c0 -3 -4 -8 -10 -11 -5 -3 -10 -1 -10 4 0 6 5 11 10 11
6 0 10 -2 10 -4z m-690 -15 c0 -5 -7 -14 -15 -21 -16 -14 -18 -10 -9 14 6 17
24 22 24 7z m160 -26 c0 -7 3 -20 6 -28 6 -17 -16 -28 -45 -20 -25 6 -26 16
-5 48 16 24 44 24 44 0z m267 3 c-3 -8 -6 -5 -6 6 -1 11 2 17 5 13 3 -3 4 -12
1 -19z m93 14 c0 -5 -9 -17 -20 -27 -22 -20 -26 -14 -10 16 11 19 30 26 30 11z
m-640 -37 c0 -8 -7 -15 -15 -15 -26 0 -18 20 13 29 1 1 2 -6 2 -14z m376 -22
c-11 -11 -19 6 -11 24 8 17 8 17 12 0 3 -10 2 -21 -1 -24z m-206 8 c0 -5 -12
-11 -27 -14 -26 -5 -26 -4 -8 9 22 16 35 18 35 5z m400 -14 c0 -26 -54 -65
-65 -47 -8 14 13 40 32 40 7 0 16 7 19 15 9 22 14 18 14 -8z m-103 -13 c-9 -9
-28 6 -21 18 4 6 10 6 17 -1 6 -6 8 -13 4 -17z m165 4 c-7 -7 -12 -8 -12 -2 0
14 12 26 19 19 2 -3 -1 -11 -7 -17z m-297 2 c3 -5 1 -10 -4 -10 -6 0 -11 5
-11 10 0 6 2 10 4 10 3 0 8 -4 11 -10z m108 -33 c20 -10 37 -20 37 -23 0 -6
-68 3 -103 13 -18 5 -18 5 0 19 10 7 20 12 23 11 3 -2 22 -11 43 -20z m-313
-113 c13 -14 11 -18 -18 -45 -40 -36 -65 -37 -114 -3 -21 15 -38 28 -38 29 0
7 51 1 56 -6 3 -5 17 -9 31 -9 23 0 25 3 19 31 -6 30 -5 31 22 24 15 -3 34
-13 42 -21z m-371 -448 c11 -13 9 -20 -16 -43 -16 -16 -39 -49 -52 -75 -13
-27 -34 -53 -49 -60 -28 -14 -165 -225 -247 -381 -39 -72 -49 -86 -61 -76 -21
17 -17 47 19 129 40 91 199 330 275 411 30 32 50 59 45 59 -26 0 -100 -69
-163 -153 -69 -92 -82 -115 -57 -101 7 4 9 3 4 -2 -5 -5 -14 -9 -20 -9 -7 0
-32 -35 -56 -78 -24 -43 -45 -76 -48 -74 -3 4 23 93 42 142 5 14 5 17 -2 10
-15 -14 -49 -112 -58 -165 -7 -45 -7 -45 13 -27 19 18 19 16 -4 -40 -27 -66
-32 -141 -10 -149 12 -5 10 -17 -10 -70 -26 -71 -30 -104 -12 -122 14 -14 41
-1 75 37 l24 26 -4 -25 c-18 -105 -33 -168 -58 -255 -17 -54 -31 -101 -33
-102 -2 -2 -8 48 -15 110 -22 221 -9 555 25 662 26 79 140 296 180 343 35 41
38 43 79 37 48 -8 85 7 124 49 25 26 43 24 70 -8z m-19 -126 c-6 -11 -30 -44
-53 -73 -123 -152 -315 -492 -325 -573 -2 -24 -13 -50 -23 -60 -17 -16 -19
-16 -25 1 -10 25 34 150 72 205 17 25 55 90 84 145 77 145 121 216 129 210 4
-2 39 34 76 80 69 86 85 102 65 65z m-330 -240 c-6 -11 -13 -20 -16 -20 -2 0
0 9 6 20 6 11 13 20 16 20 2 0 0 -9 -6 -20z m21 -307 c-11 -21 -20 -35 -21
-31 0 12 33 78 38 74 2 -2 -6 -21 -17 -43z m352 -318 c14 -44 42 -116 62 -160
33 -70 39 -77 44 -55 6 22 8 21 23 -20 10 -25 20 -58 24 -75 9 -39 35 -85 49
-85 6 0 19 -17 29 -37 l18 -38 -26 24 c-46 44 -28 4 40 -85 51 -66 59 -82 37
-66 -61 43 -233 279 -214 292 5 3 -13 61 -40 130 -61 154 -95 261 -103 320
l-6 45 19 -55 c10 -30 30 -91 44 -135z m-372 48 c-12 -20 -14 -14 -5 12 4 9 9
14 11 11 3 -2 0 -13 -6 -23z m3677 15 c21 -21 13 -45 -20 -66 -18 -10 -77 -47
-131 -82 -54 -34 -230 -135 -390 -224 -161 -90 -409 -229 -552 -310 -143 -81
-276 -151 -295 -157 -25 -8 -43 -7 -65 1 l-30 11 25 19 c14 11 131 72 260 136
129 64 285 147 345 184 393 240 534 325 640 385 66 38 136 78 155 91 42 27 43
27 58 12z m-3562 -296 c-4 -35 -13 -91 -20 -123 -9 -36 -10 -59 -4 -61 20 -7
-104 -274 -153 -329 l-30 -34 6 43 c3 25 25 78 50 121 56 96 88 168 82 184 -3
7 -14 -8 -25 -33 -35 -76 -24 -34 14 58 39 93 65 178 57 186 -9 9 9 66 19 60
7 -4 8 -30 4 -72z m85 -96 c-7 -55 -19 -112 -26 -126 -8 -15 -45 -130 -84
-256 -39 -126 -88 -269 -108 -319 l-38 -89 -8 42 c-14 70 -27 54 -57 -73 -9
-37 -9 -36 -4 14 7 74 53 215 128 389 35 81 67 158 71 172 4 14 29 82 56 151
26 69 47 138 47 155 -1 16 3 40 7 53 7 23 8 23 18 5 7 -13 7 -48 -2 -118z
m-300 37 c-9 -15 -10 -12 -10 17 0 29 1 32 10 18 7 -12 7 -24 0 -35z m385 -92
c-6 -77 -31 -199 -52 -255 -3 -9 -2 -16 4 -16 9 0 78 157 102 235 7 22 17 45
23 50 7 7 8 5 4 -6 -3 -9 -11 -51 -17 -95 -7 -43 -21 -105 -30 -136 -10 -32
-15 -60 -10 -63 12 -7 22 14 54 113 15 45 30 82 33 82 6 0 -4 -134 -14 -182
-3 -15 -11 -28 -17 -28 -17 0 -38 -75 -81 -280 -20 -96 -39 -178 -43 -182 -4
-4 -12 -4 -19 0 -8 5 -1 42 27 133 58 188 83 319 60 319 -11 0 -49 -116 -85
-262 -42 -166 -46 -180 -51 -175 -5 5 60 269 100 405 25 85 18 123 -10 55 -9
-21 -36 -116 -60 -211 -24 -94 -50 -182 -58 -195 -8 -12 -22 -55 -31 -94 -9
-40 -18 -73 -19 -73 -1 0 -1 48 0 108 3 124 45 326 101 485 19 54 32 101 28
105 -10 11 -23 -17 -65 -144 -33 -101 -77 -264 -122 -449 -5 -22 -12 -43 -16
-47 -14 -13 -11 88 4 162 20 96 142 470 154 470 5 0 16 26 25 58 20 67 74 202
82 202 3 0 3 -40 -1 -89z m-366 -53 c-17 -37 -37 -64 -47 -66 -10 -2 -47 -38
-83 -79 -36 -41 -87 -90 -115 -108 -82 -53 -217 -127 -222 -122 -2 3 16 20 41
39 52 38 58 53 19 44 -43 -10 -103 -56 -147 -113 -23 -29 -65 -83 -95 -122
-30 -38 -63 -84 -73 -103 -14 -25 -17 -27 -12 -8 24 91 180 298 274 363 14 10
19 15 13 12 -7 -3 -13 -2 -13 3 0 16 93 60 165 78 39 9 91 27 116 40 49 24
106 84 115 121 3 12 17 24 30 27 13 4 31 17 40 31 27 41 25 29 -6 -37z m-108
-200 c-33 -40 -84 -95 -112 -123 l-53 -50 27 40 c26 40 188 213 195 209 2 -2
-24 -36 -57 -76z m928 20 l23 -33 -26 24 c-15 14 -27 28 -27 33 0 14 5 9 30
-24z m-834 -3 c37 24 29 9 -18 -33 -22 -20 -66 -68 -96 -107 -66 -84 -78 -97
-63 -68 6 12 8 29 5 37 -4 10 18 46 62 101 54 66 70 81 77 69 8 -14 11 -14 33
1z m544 -28 c0 -12 -9 -28 -20 -35 -19 -12 -19 -11 -3 23 20 41 23 43 23 12z
m-596 -124 c-63 -114 -114 -198 -114 -192 -1 39 123 259 146 259 3 0 -11 -30
-32 -67z m81 -80 c-25 -62 -45 -116 -45 -121 0 -5 -8 -12 -18 -14 -13 -4 -26
-44 -60 -189 -58 -246 -78 -312 -102 -334 -20 -18 -20 -18 -20 6 0 44 50 310
80 428 50 194 57 214 87 266 23 42 29 46 31 28 5 -33 27 -28 59 12 15 19 28
33 30 31 1 -1 -18 -52 -42 -113z m441 61 c-8 -21 -15 -34 -15 -28 -1 15 20 76
25 71 2 -2 -2 -21 -10 -43z m29 -14 c-22 -67 -30 -59 -9 9 8 29 18 51 21 48 3
-3 -3 -29 -12 -57z m-796 33 c-8 -10 -36 -43 -64 -73 -153 -170 -324 -446
-366 -591 -13 -46 -29 -73 -29 -48 1 51 35 209 65 300 42 126 124 254 198 309
39 30 193 119 206 120 2 0 -3 -8 -10 -17z m45 -75 c-4 -7 -22 -33 -39 -58 -44
-62 -76 -126 -70 -142 5 -13 -178 -363 -208 -396 -8 -9 -30 -46 -48 -82 -30
-58 -34 -62 -37 -38 -6 47 38 183 97 300 98 196 151 277 231 355 77 74 87 82
74 61z m703 -10 c-3 -8 -6 -5 -6 6 -1 11 2 17 5 13 3 -3 4 -12 1 -19z m-830
-60 c-101 -143 -202 -331 -251 -468 -15 -41 -33 -82 -41 -90 -7 -8 -36 -61
-64 -117 -28 -56 -61 -112 -74 -125 -13 -13 -41 -76 -66 -148 -54 -153 -99
-239 -161 -305 -69 -74 -122 -144 -118 -155 6 -20 79 42 138 116 33 42 60 73
60 70 0 -11 -75 -112 -130 -176 -75 -86 -97 -120 -78 -120 20 0 88 74 138 150
55 82 101 142 107 137 7 -8 -20 -61 -80 -154 -76 -120 -70 -143 8 -27 57 86
159 204 177 204 9 0 -61 -103 -165 -244 -76 -104 -103 -156 -86 -167 10 -6 10
-13 1 -34 -32 -71 28 -41 82 40 20 30 40 55 45 55 22 0 17 -32 -10 -66 -32
-41 -41 -77 -13 -53 19 16 104 133 104 144 0 5 -8 0 -19 -9 -17 -16 -19 -16
-24 3 -7 28 -42 16 -75 -26 -15 -19 -35 -45 -45 -56 -34 -41 -2 13 67 112 64
92 77 121 55 121 -6 0 10 26 34 58 45 57 69 98 81 140 10 32 -12 28 -57 -9
l-37 -30 0 26 c0 23 -2 24 -21 15 -35 -20 -39 -6 -11 40 30 49 58 118 101 250
25 77 95 230 105 230 10 0 -56 -224 -94 -317 -41 -104 -46 -123 -31 -123 5 0
30 51 56 113 58 137 140 303 156 312 7 5 9 1 6 -11 -3 -11 -24 -86 -46 -169
-22 -82 -52 -183 -66 -224 -14 -41 -25 -80 -25 -88 0 -23 17 -14 30 17 23 55
20 26 -4 -40 -31 -84 -71 -269 -86 -390 -13 -100 -5 -150 23 -150 27 0 47 38
81 155 44 154 51 171 72 179 9 4 18 5 19 4 1 -2 -1 -28 -6 -58 -14 -97 -11
-167 8 -186 16 -15 18 -15 39 9 22 26 56 149 69 255 5 34 15 63 31 80 l23 27
-5 -85 c-3 -47 -10 -98 -16 -113 -6 -15 -9 -29 -7 -30 60 -34 65 -34 90 -4 18
22 18 22 19 -50 0 -75 14 -123 36 -123 21 0 42 72 49 170 4 52 12 106 17 120
10 24 11 24 18 5 5 -11 9 -32 9 -47 1 -15 6 -39 11 -53 9 -23 13 -25 25 -15 8
7 18 30 21 51 4 26 13 40 26 45 11 3 51 35 89 71 54 51 69 61 69 45 0 -11 -8
-26 -17 -33 -42 -35 -91 -139 -65 -139 19 0 90 60 164 138 43 45 80 77 84 71
6 -11 0 -21 -81 -124 -59 -75 -66 -95 -35 -95 12 0 48 33 94 86 72 82 126 133
126 119 0 -12 -43 -68 -97 -127 -29 -32 -53 -67 -53 -78 0 -11 3 -20 6 -20 3
0 27 23 52 52 52 57 142 132 150 124 7 -8 -24 -53 -85 -122 -51 -59 -64 -84
-43 -84 6 0 47 34 91 75 44 41 84 75 89 75 31 0 10 -33 -79 -124 -95 -96 -117
-130 -67 -104 11 6 55 44 97 84 42 41 83 74 90 73 8 0 -13 -23 -46 -52 -93
-82 -145 -133 -145 -146 0 -24 39 -9 97 37 83 67 123 95 123 85 -1 -4 -32 -32
-70 -62 -39 -30 -70 -58 -70 -62 0 -5 0 -12 0 -16 1 -5 10 -7 21 -5 18 3 19 1
10 -17 -15 -28 -14 -31 12 -31 33 0 60 21 185 144 115 113 154 167 58 79 -42
-39 -61 -49 -90 -50 l-36 -1 20 25 c24 31 26 53 4 53 -10 0 -14 7 -12 23 1 12
-5 33 -15 47 -9 13 -17 34 -17 46 0 12 -4 24 -8 26 -4 2 -23 44 -41 93 -17 50
-28 86 -23 80 5 -5 15 -26 22 -45 18 -47 58 -100 76 -100 31 0 18 67 -52 265
-3 11 20 -22 52 -73 61 -97 142 -192 162 -192 6 0 14 11 18 25 l6 24 33 -35
c44 -47 71 -43 68 9 l-3 38 44 -36 c50 -41 70 -45 61 -12 -6 20 -21 44 -72
117 -10 14 5 5 35 -22 29 -25 73 -56 97 -68 39 -19 44 -25 39 -46 -3 -13 -3
-24 1 -24 4 0 60 51 124 114 109 105 157 144 167 134 7 -8 -53 -93 -126 -176
-77 -88 -88 -122 -18 -56 l41 39 -31 -40 c-36 -44 -39 -55 -17 -55 8 0 27 17
42 37 15 20 47 57 69 82 23 25 48 60 57 76 8 17 39 53 69 80 l53 50 -47 -50
c-47 -50 -62 -83 -33 -71 21 8 19 1 -14 -44 -15 -21 -34 -52 -40 -67 -15 -34
-164 -135 -234 -159 -34 -11 -64 -14 -100 -10 -159 19 -163 19 -198 1 -19 -10
-86 -69 -150 -131 -193 -189 -270 -210 -455 -126 -152 70 -217 55 -399 -88
-121 -96 -178 -131 -235 -146 -90 -23 -149 4 -236 109 -83 101 -102 104 -264
41 -60 -23 -106 -34 -140 -34 -45 0 -55 4 -95 41 -30 28 -62 75 -99 148 -30
58 -67 120 -82 136 -15 16 -22 31 -17 32 5 2 45 27 87 56 43 29 94 61 114 72
133 73 353 400 416 617 13 46 32 143 41 216 10 72 22 132 26 132 12 0 11 -13
-6 -90 -17 -76 -19 -149 -5 -170 9 -13 12 -12 26 5 8 11 22 45 31 75 22 77
110 249 181 355 59 87 180 245 189 245 2 0 -16 -28 -40 -62z m195 20 c-11 -18
-52 -88 -92 -155 -40 -68 -74 -123 -76 -123 -4 0 39 97 76 171 27 52 93 139
107 139 3 0 -4 -15 -15 -32z m608 -83 c-12 -53 -24 -95 -26 -92 -2 2 6 47 18
100 12 53 23 95 26 92 3 -2 -5 -48 -18 -100z m55 45 c-7 -25 -14 -38 -14 -29
-1 18 20 82 25 77 2 -2 -3 -24 -11 -48z m1447 -27 c21 -19 23 -33 4 -33 -16 0
-305 -141 -562 -275 -136 -71 -189 -94 -197 -86 -6 6 -17 11 -25 11 -12 0 -12
-3 -1 -16 10 -13 10 -17 -2 -25 -19 -12 -49 -11 -49 2 0 5 -4 8 -10 4 -5 -3
-7 -12 -4 -19 3 -9 -3 -17 -16 -21 -16 -5 -26 -1 -36 14 -21 29 -34 26 -34 -8
0 -30 -28 -50 -50 -36 -5 3 -10 2 -10 -3 0 -6 -28 -19 -61 -31 l-62 -21 -67
45 c-95 63 -175 148 -213 225 -30 60 -32 72 -32 167 0 56 4 105 8 110 14 13
341 -337 373 -399 l15 -29 -53 -23 c-29 -13 -62 -27 -73 -31 -13 -5 -15 -9 -7
-12 11 -4 182 67 387 162 39 17 147 62 240 99 94 37 247 107 340 156 94 49
172 89 174 89 3 1 13 -6 23 -16z m-2133 -229 c-69 -225 -93 -289 -114 -311 -9
-8 -22 -28 -30 -44 -16 -30 -29 -36 -40 -19 -5 8 43 148 127 370 20 54 109
212 116 206 1 -2 -25 -93 -59 -202z m-39 110 c-30 -67 -97 -160 -107 -150 -3
3 12 34 34 68 23 35 53 85 68 111 15 26 29 46 31 44 3 -2 -9 -35 -26 -73z
m706 9 c-18 -46 33 -195 89 -262 19 -22 23 -31 12 -31 -8 0 -38 26 -66 59 -37
42 -51 67 -51 89 0 42 -11 92 -20 92 -12 0 -17 -103 -6 -121 10 -18 2 -49 -14
-49 -18 0 -11 118 11 195 19 65 24 72 36 59 8 -8 12 -22 9 -31z m-832 -80
c-56 -126 -107 -261 -119 -318 -7 -33 -25 -87 -40 -120 -15 -33 -40 -94 -55
-135 -32 -86 -79 -189 -79 -177 -1 5 22 97 50 205 50 192 54 202 156 400 104
201 136 254 87 145z m427 -30 c-11 -37 -25 -99 -31 -138 -10 -62 -21 -84 -42
-85 -3 0 -4 8 -2 18 2 9 13 55 24 102 19 84 62 196 68 180 2 -5 -6 -39 -17
-77z m-261 -139 c-37 -186 -55 -247 -82 -270 -20 -19 -21 -19 -12 6 4 14 8 36
9 50 0 25 106 372 112 367 1 -2 -11 -70 -27 -153z m159 52 c1 -16 -4 -58 -10
-94 -10 -55 -16 -66 -42 -82 -17 -11 -33 -18 -34 -16 -2 2 10 59 27 127 16 68
30 133 31 144 1 30 27 -43 28 -79z m128 22 c-3 -7 -5 -2 -5 12 0 14 2 19 5 13
2 -7 2 -19 0 -25z m270 -10 c-3 -7 -5 -2 -5 12 0 14 2 19 5 13 2 -7 2 -19 0
-25z m-732 -100 c-66 -118 -72 -127 -80 -106 -8 21 60 194 75 190 6 -1 21 4
32 13 12 8 24 13 26 11 2 -3 -22 -51 -53 -108z m660 -75 c-4 -29 -11 -53 -17
-53 -13 0 -5 210 8 231 12 18 18 -107 9 -178z m41 94 c1 -81 17 -157 34 -157
16 0 30 38 30 80 l0 42 45 -61 c28 -38 54 -90 69 -136 22 -70 23 -75 7 -90
-10 -8 -20 -15 -24 -15 -3 0 -18 52 -33 115 -27 117 -44 146 -44 77 0 -36 28
-160 46 -206 5 -14 4 -17 -4 -12 -17 10 -15 -3 11 -70 13 -32 27 -88 30 -124
l7 -65 -20 25 c-25 32 -59 121 -63 163 -1 18 -6 35 -11 38 -11 9 -12 58 -1 84
7 19 7 19 -7 1 -14 -18 -16 -14 -32 50 -10 38 -26 89 -37 113 -14 33 -19 66
-19 137 0 52 3 94 8 94 4 0 7 -37 8 -83z m-205 19 c-3 -27 -12 -51 -19 -54
-10 -3 -12 5 -6 34 6 38 23 79 28 72 2 -1 0 -25 -3 -52z m74 -71 c-9 -108 -25
-121 -25 -20 0 65 15 123 28 110 3 -2 1 -43 -3 -90z m170 10 c4 -45 3 -66 -3
-60 -5 6 -12 41 -15 78 -6 89 9 73 18 -18z m-293 35 c-2 -16 -8 -33 -13 -36
-10 -6 -12 59 -3 69 13 13 21 -3 16 -33z m345 18 c-3 -8 -6 -5 -6 6 -1 11 2
17 5 13 3 -3 4 -12 1 -19z m120 -63 c119 -141 136 -165 120 -165 -17 0 -176
196 -190 233 -10 26 -10 26 70 -68z m-299 13 c-5 -74 8 -148 27 -148 15 0 20
-35 35 -220 6 -85 5 -117 -3 -122 -9 -6 -9 -8 1 -8 8 0 11 -13 11 -37 -2 -31
-3 -33 -6 -10 -2 15 -9 27 -14 27 -11 0 -11 -33 1 -85 11 -49 6 -56 -13 -18
-8 15 -22 98 -31 183 -9 85 -21 185 -26 222 -11 77 -2 278 13 278 5 0 8 -26 5
-62z m253 -32 c14 -17 47 -62 74 -99 37 -53 45 -71 35 -77 -16 -10 -53 33 -91
104 -13 26 -29 44 -36 42 -7 -3 -21 6 -32 20 -16 20 -17 28 -8 49 11 23 13 24
22 9 6 -10 22 -31 36 -48z m-385 -18 c-8 -47 -36 -89 -36 -53 0 34 20 95 32
95 7 0 8 -15 4 -42z m-56 -32 c-6 -31 -16 -59 -22 -62 -6 -4 -8 1 -5 12 3 11
9 37 13 59 7 44 13 59 21 51 3 -2 0 -29 -7 -60z m-45 -3 c-4 -27 -13 -61 -20
-78 -13 -29 -13 -29 -14 28 -1 59 11 97 30 97 8 0 9 -16 4 -47z m1095 12 c0
-8 -9 -19 -20 -25 -16 -9 -22 -8 -27 6 -3 9 0 20 8 25 21 13 39 11 39 -6z
m-430 -20 c13 -14 21 -25 18 -25 -2 0 -15 11 -28 25 -13 14 -21 25 -18 25 2 0
15 -11 28 -25z m-759 -34 c-10 -27 -25 -58 -33 -70 l-15 -22 -6 22 c-9 36 4
78 31 99 38 31 44 24 23 -29z m32 -23 c-5 -66 -9 -76 -41 -110 -20 -21 -40
-38 -44 -38 -17 0 -6 37 22 69 15 18 37 60 47 92 10 32 19 59 20 59 1 0 -1
-33 -4 -72z m220 -176 c11 -103 11 -126 0 -142 -8 -11 -18 -20 -22 -20 -5 0
-11 42 -15 93 -4 51 -13 115 -20 142 -10 40 -10 57 0 85 7 19 16 49 20 65 8
34 13 6 37 -223z m865 215 c5 -24 -26 -33 -46 -13 -15 15 -15 18 -2 26 21 14
44 8 48 -13z m-205 -58 c32 -16 55 -34 52 -38 -7 -12 67 -75 133 -112 28 -17
52 -32 52 -35 0 -7 -132 62 -180 94 -60 41 -66 30 -10 -19 25 -21 39 -39 31
-39 -17 0 -125 110 -171 176 l-35 49 35 -23 c19 -12 61 -36 93 -53z m-1364
-235 c-107 -250 -139 -316 -139 -290 0 5 16 50 37 100 20 50 37 102 39 116 4
44 128 314 154 337 14 12 26 20 27 19 2 -1 -51 -128 -118 -282z m885 182 l27
-104 -24 -48 -24 -47 -6 74 c-4 41 -10 109 -13 152 -4 48 -3 77 3 77 6 0 22
-47 37 -104z m-260 69 c-6 -16 -24 -21 -24 -7 0 11 11 22 21 22 5 0 6 -7 3
-15z m-499 -37 c-4 -21 -1 -40 8 -52 13 -17 12 -26 -9 -73 -13 -29 -46 -82
-74 -117 -80 -101 -109 -184 -75 -210 13 -9 6 -33 -46 -166 -33 -85 -75 -210
-94 -277 -37 -135 -51 -166 -68 -160 -8 3 -12 33 -11 93 1 118 63 380 96 402
25 18 86 147 193 405 43 103 80 187 82 187 2 0 1 -15 -2 -32z m445 -22 c-5
-15 -11 -60 -11 -99 -1 -40 -4 -58 -6 -42 -2 17 -8 52 -14 79 -9 44 -7 51 12
73 27 28 33 25 19 -11z m178 -87 c13 -120 12 -136 -6 -125 -12 7 -37 220 -28
235 16 25 22 5 34 -110z m352 64 c0 -27 -17 -11 -28 25 l-11 37 19 -25 c11
-14 20 -31 20 -37z m-731 -12 c-7 -14 -16 -46 -19 -71 -7 -40 -7 -37 -9 31 -1
47 4 80 11 87 20 20 33 -15 17 -47z m946 1 c-7 -7 -34 18 -47 42 -8 16 -3 14
21 -8 17 -16 29 -32 26 -34z m-45 -22 c0 -10 -7 -7 -20 10 -11 14 -20 32 -20
40 0 10 7 7 20 -10 11 -14 20 -32 20 -40z m-969 -46 c-6 -48 -16 -93 -22 -98
-8 -8 -10 -2 -6 24 24 144 30 171 34 166 3 -2 0 -44 -6 -92z m879 77 c18 -35
11 -45 -15 -21 -14 13 -25 27 -25 32 0 16 29 8 40 -11z m422 -40 c98 -39 147
-64 173 -89 19 -19 34 -37 31 -39 -9 -9 -208 77 -259 112 -58 39 -107 78 -92
73 6 -2 72 -27 147 -57z m-1737 -15 c-23 -59 -29 -53 -13 13 7 32 15 48 21 42
6 -6 3 -27 -8 -55z m389 -50 c-12 -74 -22 -110 -35 -122 -11 -10 -22 -15 -25
-11 -9 9 38 211 54 230 8 9 17 15 19 13 3 -3 -3 -52 -13 -110z m376 82 c0 -20
-10 -45 -25 -63 l-24 -30 -1 52 c0 39 4 55 18 62 27 16 32 13 32 -21z m-452
-20 c-6 -18 -13 -27 -15 -21 -4 11 13 53 22 53 2 0 -1 -15 -7 -32z m352 -55
c0 -43 -5 -66 -16 -77 -8 -9 -18 -16 -21 -16 -8 0 3 156 12 170 14 22 25 -12
25 -77z m611 56 c16 -23 20 -36 12 -47 -17 -28 -29 -23 -46 19 -25 64 -4 81
34 28z m107 -15 c-4 -3 -12 5 -18 18 -12 22 -12 22 6 6 10 -10 15 -20 12 -24z
m-154 -34 c14 -40 16 -53 6 -65 -11 -13 -15 -12 -30 8 -38 49 -43 67 -24 88 9
10 20 19 24 19 3 0 14 -23 24 -50z m133 14 c-9 -10 -38 16 -31 28 4 6 13 4 22
-6 9 -8 13 -19 9 -22z m74 9 c13 -16 12 -17 -3 -4 -10 7 -18 15 -18 17 0 8 8
3 21 -13z m89 -38 c0 -5 -10 0 -21 12 -13 12 -18 26 -14 33 6 9 12 6 21 -11 7
-13 13 -28 14 -34z m-1210 -65 c-22 -98 -26 -110 -40 -110 -8 0 5 58 37 170
24 84 26 44 3 -60z m137 48 c-2 -13 -4 -3 -4 22 0 25 2 35 4 23 2 -13 2 -33 0
-45z m155 -15 c-3 -68 -7 -82 -30 -105 -14 -16 -29 -28 -34 -28 -4 0 -8 30 -8
66 0 58 3 69 32 105 17 21 34 39 37 39 3 0 5 -35 3 -77z m816 55 c14 -14 16
-28 2 -28 -5 0 -14 9 -20 20 -12 22 -1 27 18 8z m-115 -50 c-35 -37 -53 -21
-22 21 18 24 25 28 36 19 11 -9 9 -16 -14 -40z m-525 -50 l10 -93 -30 -38
c-40 -50 -48 -38 -48 76 0 77 3 93 23 117 12 16 25 29 28 29 4 1 11 -41 17
-91z m617 72 c10 -11 14 -20 8 -20 -5 0 -18 9 -28 20 -10 11 -14 20 -8 20 5 0
18 -9 28 -20z m100 0 c3 -5 1 -10 -4 -10 -6 0 -11 5 -11 10 0 6 2 10 4 10 3 0
8 -4 11 -10z m81 -5 c7 -17 -1 -52 -15 -74 -8 -12 -16 -13 -51 -2 l-42 12 23
25 c15 16 26 21 33 14 15 -15 27 -12 25 8 -2 26 0 32 11 32 6 0 13 -7 16 -15z
m89 -20 c19 -15 18 -15 -12 -1 -17 9 -35 21 -39 27 -8 13 21 -1 51 -26z m45 5
c8 -5 10 -10 4 -10 -7 0 -22 9 -35 21 -19 16 -20 18 -4 10 11 -6 27 -15 35
-21z m-656 4 c3 -8 2 -12 -4 -9 -6 3 -10 10 -10 16 0 14 7 11 14 -7z m969 -44
c22 -12 41 -19 44 -16 3 2 -8 12 -24 21 -45 26 2 10 140 -47 67 -27 130 -52
140 -55 42 -13 -16 -57 -131 -101 -114 -44 -135 -48 -87 -17 22 14 46 23 53
20 6 -2 12 0 12 5 0 18 -20 20 -51 5 -34 -18 -48 -15 -24 5 20 17 19 40 -2 40
-26 0 -73 -37 -128 -101 -55 -65 -71 -71 -31 -12 58 84 6 101 -78 24 -21 -19
-16 -9 18 38 66 90 75 143 26 149 -21 4 -102 62 -84 62 3 0 39 -12 80 -26 41
-15 77 -24 80 -21 4 3 -9 25 -27 49 l-34 43 35 -22 c19 -12 52 -32 73 -43z
m-1767 -49 c-17 -70 -29 -99 -45 -109 -26 -18 -26 -14 3 81 22 70 53 134 61
125 2 -1 -7 -46 -19 -97z m1114 80 c14 -28 13 -33 -17 -67 -16 -16 -34 -43
-41 -59 l-13 -29 -18 28 c-24 36 -17 62 27 109 41 42 47 44 62 18z m98 0 c3
-8 -1 -12 -9 -9 -7 2 -15 10 -17 17 -3 8 1 12 9 9 7 -2 15 -10 17 -17z m-1605
-6 c-3 -9 -8 -14 -10 -11 -3 3 -2 9 2 15 9 16 15 13 8 -4z m1799 -26 c-4 -3
-28 -25 -55 -49 -26 -24 -50 -41 -52 -38 -3 3 9 32 26 66 l32 61 28 -16 c16
-10 25 -20 21 -24z m-507 -388 c-16 -15 -42 25 -85 130 -27 62 -55 139 -65
169 -16 52 -16 55 2 70 10 8 17 24 16 35 -2 11 28 -74 67 -189 39 -115 68
-211 65 -215z m-649 261 c-15 -15 -16 -10 -16 54 0 91 13 103 24 24 7 -52 5
-65 -8 -78z m688 107 c-8 -13 -24 -1 -24 18 0 13 3 13 15 3 8 -7 12 -16 9 -21z
m56 15 c0 -8 -5 -12 -10 -9 -6 4 -8 11 -5 16 9 14 15 11 15 -7z m-808 -16 c-7
-7 -12 -8 -12 -2 0 6 3 14 7 17 3 4 9 5 12 2 2 -3 -1 -11 -7 -17z m1288 -11
c0 -6 -18 -35 -41 -64 l-41 -55 -24 23 c-31 29 -41 19 -18 -20 17 -29 17 -31
-1 -51 l-18 -20 -29 27 c-32 30 -37 49 -10 38 46 -19 56 -19 48 1 -21 50 -19
55 33 104 47 44 55 48 77 38 13 -6 24 -16 24 -21z m66 18 c10 -8 14 -15 8 -15
-5 0 -19 7 -30 15 -10 8 -14 15 -8 15 5 0 19 -7 30 -15z m-386 -3 c0 -5 -13
-21 -30 -37 -35 -34 -39 -26 -8 15 21 29 38 39 38 22z m-721 -196 c-5 -6 -8
30 -8 95 l2 104 8 -95 c4 -57 4 -99 -2 -104z m800 165 c22 -31 27 -46 11 -36
-17 10 -52 65 -41 65 5 0 19 -13 30 -29z m-1069 11 c0 -5 -7 -17 -15 -28 -14
-19 -14 -19 -15 2 0 11 3 24 7 27 9 10 23 9 23 -1z m47 -99 c-2 -21 -4 -4 -4
37 0 41 2 58 4 38 2 -21 2 -55 0 -75z m-293 21 c-31 -78 -38 -89 -53 -80 -8 5
-6 17 5 39 24 47 68 116 72 113 1 -2 -9 -34 -24 -72z m723 -32 c-9 -12 -12
-11 -18 5 -12 29 -10 78 4 92 10 10 13 3 19 -36 5 -31 3 -52 -5 -61z m547 99
c4 -5 1 -11 -6 -13 -8 -3 -5 -16 11 -41 22 -35 22 -39 7 -62 -9 -14 -21 -25
-26 -25 -5 0 -22 20 -39 43 l-30 44 32 31 c33 34 42 38 51 23z m354 -2 l32
-11 -76 -54 c-42 -30 -79 -53 -81 -50 -6 5 78 126 87 126 4 0 21 -5 38 -11z
m-485 -131 c93 -146 117 -189 117 -213 0 -18 -5 -19 -30 -5 -27 14 -67 76
-139 212 -57 106 -66 138 -42 138 5 0 47 -60 94 -132z m-871 55 c-2 -38 -9
-72 -14 -78 -7 -7 -9 6 -4 39 3 27 6 62 6 77 0 16 4 29 8 29 4 0 6 -30 4 -67z
m198 -137 l-20 -20 0 93 c0 76 3 98 18 114 16 18 17 16 20 -74 2 -82 0 -95
-18 -113z m-67 138 c-22 -30 -29 -34 -31 -20 -4 19 50 84 56 67 2 -6 -9 -27
-25 -47z m1323 46 c24 0 15 -26 -31 -89 -42 -57 -46 -60 -77 -54 -18 3 -46 12
-61 20 -28 14 -28 15 -11 34 31 34 137 100 152 94 7 -3 20 -5 28 -5z m-1541
-33 c-4 -14 -18 -35 -31 -48 l-24 -22 0 27 c0 16 11 38 26 53 29 29 38 26 29
-10z m1126 16 c13 -16 12 -17 -3 -4 -10 7 -18 15 -18 17 0 8 8 3 21 -13z
m-641 -107 c-18 -18 -19 -17 -25 28 -6 38 -4 51 11 68 19 20 19 20 25 -28 5
-39 3 -53 -11 -68z m-435 8 c-5 -37 -29 -74 -39 -63 -7 8 16 134 27 148 10 12
13 9 15 -14 2 -16 1 -48 -3 -71z m848 -27 c70 -119 91 -177 65 -177 -19 0 -55
40 -107 118 -34 51 -40 66 -31 77 7 8 10 33 8 55 -2 22 -3 40 -2 40 0 0 31
-51 67 -113z m124 51 c15 -28 27 -57 25 -65 -2 -7 3 -13 10 -13 13 0 103 -128
95 -136 -9 -9 -102 97 -147 167 -35 56 -45 80 -37 88 18 18 24 13 54 -41z
m-793 -149 c-24 -27 -32 -14 -35 58 -2 51 2 68 22 97 l24 36 3 -86 c2 -71 0
-90 -14 -105z m-308 155 c-3 -9 -6 -24 -6 -34 0 -10 -9 -28 -20 -41 l-21 -24
7 35 c10 52 22 80 35 80 6 0 8 -7 5 -16z m240 -29 c-4 -14 -11 -25 -16 -25
-14 0 -12 44 2 58 16 16 22 0 14 -33z m1861 23 c13 -12 23 -30 23 -39 0 -19
-347 -366 -457 -458 -34 -29 -147 -112 -250 -186 l-188 -134 -55 31 c-30 17
-65 39 -77 51 l-23 20 145 142 c120 118 151 143 181 148 51 9 131 49 182 92
41 36 58 42 26 11 -8 -9 -11 -16 -5 -16 6 0 23 19 37 43 108 171 141 200 279
247 50 16 104 39 120 49 38 25 35 25 62 -1z m-1578 -59 c1 -22 -43 -79 -61
-79 -3 0 -8 19 -10 43 -4 37 -1 46 26 75 31 33 31 33 38 10 3 -13 6 -35 7 -49z
m-465 -7 c-5 -45 -13 -67 -30 -83 -13 -12 -26 -20 -29 -17 -14 14 9 111 33
139 13 17 26 28 29 25 2 -2 1 -31 -3 -64z m594 21 c9 -27 7 -34 -12 -52 -12
-12 -25 -21 -29 -21 -12 0 -8 95 5 108 14 14 22 7 36 -35z m127 -93 c24 -73
42 -137 39 -141 -10 -17 -33 -9 -39 14 -4 12 -16 42 -28 67 -15 31 -23 70 -25
125 -2 44 -1 77 2 74 4 -3 26 -66 51 -139z m495 59 c0 -9 -7 -22 -16 -29 -13
-11 -20 -9 -47 18 l-31 31 24 26 25 26 22 -28 c13 -15 23 -35 23 -44z m-1340
6 c-9 -42 -66 -133 -76 -122 -10 10 38 144 57 160 12 10 24 16 26 14 2 -3 -1
-26 -7 -52z m270 16 c0 -28 -15 -49 -27 -38 -8 8 7 67 18 67 5 0 9 -13 9 -29z
m1300 -11 l21 0 -21 -30 c-12 -16 -24 -30 -28 -30 -4 0 -19 20 -34 44 l-26 44
34 -14 c18 -8 43 -14 54 -14z m-81 -22 c17 -23 29 -43 27 -45 -6 -6 -83 35
-91 47 -7 11 12 40 25 40 5 0 22 -19 39 -42z m-1260 5 c0 -16 -4 -37 -9 -48
-6 -15 -9 -8 -9 28 -1 26 4 47 9 47 6 0 10 -12 9 -27z m81 -128 c-20 -19 -20
-19 -20 56 0 47 5 80 13 88 10 10 13 -1 19 -56 6 -60 5 -70 -12 -88z m331 62
c-17 -17 -25 41 -10 71 l14 27 3 -44 c2 -24 -1 -48 -7 -54z m-141 23 c0 -58
-16 -67 -23 -12 -4 31 6 62 19 62 2 0 4 -22 4 -50z m-463 -17 c-5 -32 -18 -67
-28 -78 -22 -23 -24 -13 -8 55 8 35 33 80 44 80 1 0 -2 -26 -8 -57z m132 -63
c-13 -16 -26 -30 -29 -30 -14 0 9 113 27 132 18 20 18 20 21 -26 2 -35 -2 -53
-19 -76z m1316 21 c-13 -14 -26 -23 -28 -20 -1 2 -17 27 -34 56 l-31 52 58
-32 59 -32 -24 -24z m-1586 4 c-17 -63 -39 -106 -39 -78 0 15 52 155 56 151 1
-2 -6 -34 -17 -73z m811 45 c-26 -36 -40 -46 -40 -26 0 12 44 56 57 56 2 0 -5
-13 -17 -30z m-455 -129 c-13 -14 -15 -9 -15 48 0 34 6 72 13 84 11 19 12 14
15 -47 2 -52 -1 -73 -13 -85z m530 116 c29 -69 28 -80 -10 -104 -40 -25 -40
-25 -20 13 47 90 -6 68 -120 -48 -99 -103 -94 -94 22 40 34 40 69 85 78 102
20 39 33 38 50 -3z m619 -4 c14 -20 24 -39 21 -41 -2 -3 -25 8 -51 23 -44 26
-46 29 -29 41 27 20 31 18 59 -23z m-944 -24 c0 -14 -11 -36 -25 -49 l-25 -23
0 37 c0 44 28 95 41 74 5 -7 9 -25 9 -39z m153 19 c5 -17 -10 -38 -76 -106
-84 -86 -128 -121 -108 -85 5 10 27 37 48 60 21 23 55 69 77 102 39 62 49 67
59 29z m-644 -56 c-9 -36 -20 -57 -41 -72 -36 -26 -40 -23 -29 18 9 30 70 116
78 108 2 -1 -2 -26 -8 -54z m134 -14 c-5 -49 -13 -72 -36 -101 -16 -21 -31
-36 -34 -33 -2 2 0 36 6 76 7 52 16 79 32 96 12 13 26 24 31 24 4 0 5 -28 1
-62z m117 -13 c0 -37 -4 -65 -10 -65 -11 0 -14 88 -4 114 11 28 14 17 14 -49z
m277 23 c-3 -8 -6 -5 -6 6 -1 11 2 17 5 13 3 -3 4 -12 1 -19z m-111 -24 c-5
-19 -10 -24 -17 -17 -8 8 -7 18 1 33 15 28 24 19 16 -16z m-200 -36 c-5 -40
-13 -59 -34 -77 l-27 -25 -3 38 c-3 28 4 48 24 77 37 54 48 50 40 -13z m128
17 c-10 -16 -20 -23 -22 -16 -4 12 28 55 35 47 3 -2 -3 -17 -13 -31z m-904
-14 c-5 -11 -15 -23 -22 -27 -7 -5 -8 -2 -3 7 21 37 44 55 25 20z m2576 -53
c-23 -40 -80 -144 -126 -231 -46 -88 -90 -161 -98 -164 -24 -10 -116 16 -147
41 -24 19 -27 27 -20 44 6 11 66 65 135 121 69 55 163 136 210 180 47 44 86
80 87 81 1 0 -17 -33 -41 -72z m-1626 40 c0 -11 -29 -37 -43 -38 -4 0 0 14 8
30 15 28 35 33 35 8z m470 -23 c-21 -26 -31 -16 -13 11 9 15 19 21 21 15 2 -6
-2 -18 -8 -26z m-553 -36 c-8 -89 -25 -97 -34 -15 -4 29 -1 51 7 61 25 30 33
16 27 -46z m-413 27 c-6 -16 -24 -23 -24 -8 0 10 22 33 27 28 2 -2 1 -11 -3
-20z m82 2 c-3 -13 -15 -68 -27 -123 -12 -55 -25 -109 -29 -120 -7 -19 -7 -19
-19 3 -9 17 -9 45 -1 120 9 87 13 99 38 119 35 29 46 29 38 1z m944 2 c0 -5
-4 -10 -10 -10 -5 0 -10 5 -10 10 0 6 5 10 10 10 6 0 10 -4 10 -10z m-814 -84
c-16 -38 -33 -46 -42 -22 -3 8 7 31 23 51 32 41 42 26 19 -29z m95 -71 c-14
-99 -19 -117 -35 -112 -7 2 -12 37 -14 89 -3 83 -2 87 25 108 16 13 29 17 31
10 2 -6 -1 -49 -7 -95z m749 41 c0 -2 -8 -10 -17 -17 -16 -13 -17 -12 -4 4 13
16 21 21 21 13z m30 -100 c0 -3 -15 -14 -32 -26 l-33 -22 28 26 c27 25 37 31
37 22z m144 -175 c6 -10 -233 -244 -299 -293 -22 -16 30 39 115 123 85 84 148
148 140 143 -8 -6 -34 -25 -57 -43 -66 -51 -51 -28 19 29 65 52 73 56 82 41z
m536 -21 c0 -4 -7 -11 -15 -14 -9 -3 -28 -32 -43 -63 -15 -32 -41 -78 -56
-102 -16 -25 -36 -61 -45 -80 -19 -42 -71 -131 -77 -131 -7 0 8 34 87 198 43
90 78 167 77 170 -1 4 1 17 5 29 7 19 11 20 37 11 17 -5 30 -14 30 -18z m-500
-10 c0 -5 -5 -10 -11 -10 -5 0 -7 5 -4 10 3 6 8 10 11 10 2 0 4 -4 4 -10z
m616 -23 c2 -2 -12 -28 -31 -58 -27 -41 -35 -48 -33 -29 3 22 0 25 -26 22 -24
-3 -28 -1 -22 13 3 9 6 31 6 49 l0 33 51 -13 c29 -8 53 -15 55 -17z m-500 -64
c18 -11 18 -12 -6 -30 -14 -10 -38 -18 -55 -19 -16 0 -39 -4 -50 -9 -16 -6
-18 -6 -7 6 17 19 15 29 -8 29 -25 0 -25 4 1 56 l20 43 43 -32 c24 -18 52 -37
62 -44z m553 58 c11 -7 9 -17 -7 -55 -23 -51 -52 -63 -52 -20 0 25 28 84 40
84 3 0 11 -4 19 -9z m-189 -46 c-6 -15 -13 -25 -17 -22 -3 4 0 21 8 38 16 39
24 24 9 -16z m-525 5 c-10 -11 -23 -20 -28 -20 -6 0 0 11 13 25 27 29 42 25
15 -5z m-145 -3 c0 -2 -10 -12 -22 -23 l-23 -19 19 23 c18 21 26 27 26 19z
m49 -84 c-19 -23 -77 -75 -103 -91 -12 -7 8 14 43 47 63 60 87 78 60 44z m91
14 c0 -2 -10 -12 -22 -23 l-23 -19 19 23 c18 21 26 27 26 19z m155 -17 c-10
-11 -23 -20 -29 -20 -6 0 0 9 14 20 32 25 38 25 15 0z m395 0 c-6 -11 -13 -20
-16 -20 -2 0 0 9 6 20 6 11 13 20 16 20 2 0 0 -9 -6 -20z m-96 -71 c-19 -39
-38 -69 -40 -66 -8 8 61 137 72 137 2 0 -12 -32 -32 -71z m159 -2 c-26 -34
-56 -74 -66 -87 -10 -14 -8 -7 4 15 22 39 97 135 105 135 3 0 -17 -28 -43 -63z
m-533 18 c0 -2 -10 -9 -22 -15 -22 -11 -22 -10 -4 4 21 17 26 19 26 11z m-372
-143 c-107 -98 -131 -113 -52 -33 45 44 87 81 93 81 7 0 -11 -22 -41 -48z
m-158 -25 c0 -1 -25 -27 -57 -57 -40 -39 -50 -46 -34 -23 23 34 91 94 91 80z
m790 -97 c-28 -55 -52 -100 -55 -100 -6 0 61 148 81 178 32 49 21 17 -26 -78z
m-640 57 c0 -2 -10 -12 -22 -23 l-23 -19 19 23 c18 21 26 27 26 19z m605 -27
c-9 -16 -18 -30 -21 -30 -2 0 2 14 11 30 9 17 18 30 21 30 2 0 -2 -13 -11 -30z
m205 11 c-5 -11 -15 -23 -21 -27 -6 -3 -3 5 6 20 20 30 30 35 15 7z m-1119
-120 c-11 -15 -37 -41 -58 -57 -42 -31 -33 -15 26 49 41 44 61 49 32 8z m797
-31 c-11 -28 -23 -49 -25 -47 -4 5 34 97 41 97 3 0 -5 -23 -16 -50z m-568 37
c0 -2 -19 -21 -41 -42 -37 -36 -40 -37 -34 -15 10 34 34 60 57 60 10 0 18 -1
18 -3z m741 -129 c-27 -51 -57 -114 -66 -141 -10 -26 -20 -46 -22 -43 -6 5 28
137 43 166 11 22 84 110 91 110 1 0 -19 -42 -46 -92z m-857 35 c-25 -39 -127
-154 -132 -149 -2 2 4 16 13 30 9 14 18 32 19 42 3 17 94 103 110 104 4 0 0
-12 -10 -27z m-345 -108 c-9 -9 -38 -23 -65 -31 -60 -18 -45 0 22 26 60 24 62
24 43 5z m1081 -157 c-17 -62 -35 -126 -39 -143 l-9 -30 -1 33 c-2 67 21 178
48 224 14 27 27 44 29 39 2 -6 -11 -61 -28 -123z m-1071 68 c-2 -2 -15 -9 -29
-15 -24 -11 -24 -11 -6 3 16 13 49 24 35 12z m62 -24 c-5 -9 -19 -26 -32 -37
-19 -16 -18 -13 5 18 30 39 43 49 27 19z m109 -2 c-6 -11 -13 -20 -16 -20 -2
0 0 9 6 20 6 11 13 20 16 20 2 0 0 -9 -6 -20z m-280 -7 c0 -11 -63 -73 -73
-73 -5 0 6 18 24 39 33 38 49 49 49 34z m74 -34 c-12 -13 -20 -16 -22 -9 -3 7
2 16 9 21 25 16 32 9 13 -12z m-230 -40 c-10 -11 -27 -25 -37 -31 -16 -8 -15
-5 4 21 12 17 29 31 37 31 12 0 11 -4 -4 -21z m432 2 c-3 -5 -22 -68 -41 -141
-19 -73 -40 -139 -46 -149 -8 -14 -9 -13 -5 4 3 11 7 39 10 61 7 62 67 234 82
234 3 0 3 -4 0 -9z m724 -5 c0 -2 -8 -10 -17 -17 -16 -13 -17 -12 -4 4 13 16
21 21 21 13z m-835 -33 c-24 -38 -126 -173 -131 -173 -2 0 -4 8 -4 19 0 10 15
34 33 52 19 19 51 55 72 82 41 52 57 62 30 20z m785 -11 c0 -14 -42 -48 -80
-66 -33 -16 -33 -15 15 29 48 44 65 53 65 37z m-1070 -6 c0 -2 -15 -9 -32 -15
-30 -10 -31 -9 -14 4 18 14 46 20 46 11z m115 -30 c-20 -29 -38 -35 -28 -8 7
17 35 43 41 37 2 -2 -4 -15 -13 -29z m1026 -97 c-11 -30 -20 -49 -20 -43 -1
15 30 106 35 101 2 -2 -5 -28 -15 -58z m-67 26 c-9 -14 -18 -25 -20 -25 -2 0
2 11 8 25 6 14 15 25 20 25 5 0 1 -11 -8 -25z m-801 -20 c-3 -9 -8 -14 -10
-11 -3 3 -2 9 2 15 9 16 15 13 8 -4z m805 -37 c-6 -18 -13 -27 -15 -21 -4 11
13 53 22 53 2 0 -1 -15 -7 -32z m-82 -14 c-7 -28 -36 -77 -42 -71 -5 5 35 97
43 97 3 0 2 -12 -1 -26z m-956 -58 c0 -16 -18 -31 -27 -22 -8 8 5 36 17 36 5
0 10 -6 10 -14z m184 -71 c-23 -62 -30 -49 -8 17 9 29 19 47 21 41 3 -7 -3
-33 -13 -58z m-94 -15 c-10 -33 -24 -92 -30 -130 -15 -87 -36 -108 -27 -28 6
61 54 218 67 218 5 0 0 -27 -10 -60z m760 52 c0 -4 -11 -23 -25 -42 -28 -39
-31 -34 -11 15 13 31 36 48 36 27z m337 -69 c-2 -16 -4 -3 -4 27 0 30 2 43 4
28 2 -16 2 -40 0 -55z m-177 36 c-12 -41 -20 -48 -20 -18 0 20 16 49 26 49 2
0 -1 -14 -6 -31z m100 -49 c-7 -28 -16 -47 -21 -44 -14 8 -11 34 9 75 22 47
27 33 12 -31z m-1196 3 c-1 -32 -7 -71 -13 -88 -9 -28 -9 -27 -10 19 -1 40 16
126 24 126 2 0 1 -26 -1 -57z m111 -19 c-15 -51 -41 -94 -55 -94 -15 0 -12 48
3 57 7 4 19 27 25 50 9 29 17 41 27 37 11 -5 12 -12 0 -50z m865 47 c0 -5 -12
-17 -27 -26 l-28 -18 24 27 c26 28 31 31 31 17z m-660 -11 c0 -6 -8 -25 -17
-43 -9 -18 -24 -56 -33 -86 -9 -29 -19 -47 -22 -40 -7 17 51 179 63 179 5 0 9
-5 9 -10z m938 -165 c0 -22 -3 -19 -9 15 -10 60 -9 108 2 55 4 -22 8 -53 7
-70z m-1229 -10 c-1 -29 -1 -29 -9 -5 -4 14 -8 34 -9 45 -1 16 1 17 9 5 5 -8
9 -28 9 -45z m1270 -18 l-2 -62 -8 45 c-11 64 -11 92 1 85 6 -3 9 -34 9 -68z
m-1115 14 c-4 -22 -10 -41 -15 -41 -12 0 -11 5 3 51 14 49 21 44 12 -10z m907
-44 c-8 -8 -11 -4 -11 14 0 33 14 47 18 19 2 -12 -1 -27 -7 -33z m139 -119
c13 -96 13 -97 3 -100 -14 -5 -31 97 -31 187 0 99 4 88 28 -87z m-1120 75 c0
-27 -3 -34 -11 -26 -7 7 -9 23 -5 37 9 37 16 32 16 -11z m100 -20 c0 -32 -5
-28 -14 10 -4 19 -3 26 4 22 5 -3 10 -18 10 -32z m960 -43 c0 -65 -11 -93 -30
-74 -4 5 -6 41 -3 81 4 55 9 70 19 66 10 -4 14 -25 14 -73z m-100 -5 c6 -8 10
-20 7 -27 -2 -7 0 -26 4 -43 8 -28 7 -29 -6 -10 -20 26 -35 82 -34 125 l1 35
8 -32 c4 -18 13 -40 20 -48z m-933 23 c-3 -8 -6 -5 -6 6 -1 11 2 17 5 13 3 -3
4 -12 1 -19z m40 -25 c-3 -10 -5 -4 -5 12 0 17 2 24 5 18 2 -7 2 -21 0 -30z
m1107 -63 c5 -45 4 -60 -4 -50 -9 13 -15 129 -6 119 2 -2 6 -33 10 -69z
m-1010 4 c3 -8 2 -12 -4 -9 -6 3 -10 10 -10 16 0 14 7 11 14 -7z m871 -74 c6
-23 5 -23 -14 5 -12 17 -21 34 -21 40 0 17 28 -19 35 -45z m-848 24 c-3 -3
-12 -4 -19 -1 -8 3 -5 6 6 6 11 1 17 -2 13 -5z m1051 -64 c-2 -7 -10 1 -17 16
-12 27 -11 28 4 12 10 -9 16 -21 13 -28z m-96 -15 c3 -14 2 -25 -2 -25 -9 0
-20 25 -20 46 0 23 17 7 22 -21z m41 -15 c3 -11 1 -18 -4 -14 -5 3 -9 12 -9
20 0 20 7 17 13 -6z m47 -35 c0 -5 -5 -3 -10 5 -5 8 -10 20 -10 25 0 6 5 3 10
-5 5 -8 10 -19 10 -25z"/>
<path d="M4496 3661 c-20 -38 -36 -73 -36 -77 0 -5 18 24 40 65 22 41 38 76
36 78 -2 2 -20 -28 -40 -66z"/>
<path d="M5444 7149 c-21 -22 -58 -51 -81 -64 -54 -32 -80 -66 -98 -130 -36
-122 -114 -194 -235 -216 -89 -16 -176 -2 -309 48 -53 20 -118 38 -146 40 -43
3 -58 -1 -110 -32 -100 -59 -166 -86 -260 -107 -124 -27 -170 -21 -244 31 -78
54 -110 54 -207 0 -61 -33 -83 -40 -129 -40 -124 0 -201 42 -319 177 -141 162
-185 189 -292 182 -62 -4 -87 -12 -171 -54 -133 -67 -178 -107 -143 -129 6 -4
9 4 7 17 -2 20 13 31 116 83 100 50 128 60 183 63 100 7 146 -21 290 -175 148
-157 184 -177 319 -178 85 0 93 2 141 32 55 36 100 49 136 40 13 -4 48 -25 78
-48 l55 -41 80 5 c115 8 184 29 320 97 71 36 133 60 151 60 18 0 90 -21 160
-46 142 -50 246 -65 321 -45 97 26 201 130 225 225 14 54 44 90 123 146 48 35
93 85 84 95 -3 2 -23 -14 -45 -36z"/>
<path d="M5395 6880 c-9 -10 -27 -54 -39 -97 -24 -88 -52 -116 -128 -128 -34
-6 -56 -22 -130 -94 -103 -100 -167 -139 -298 -182 -150 -49 -233 -43 -393 27
-53 23 -93 34 -125 34 -80 0 -177 -33 -253 -86 -153 -108 -189 -114 -281 -48
-110 78 -200 96 -374 74 -215 -27 -366 -104 -420 -215 -14 -30 -14 -30 3 -5
36 53 117 123 166 144 119 52 317 83 423 66 83 -13 120 -29 190 -79 100 -72
151 -67 283 28 151 109 235 121 396 58 162 -64 240 -67 393 -17 143 47 223 96
302 183 34 38 67 61 135 92 50 23 95 48 102 56 6 8 21 50 33 93 11 44 25 87
31 98 13 23 7 23 -16 -2z"/>
<path d="M5955 6748 c3 -28 0 -38 -11 -38 -8 0 -14 -4 -14 -10 0 -16 30 -11
37 6 3 8 1 29 -6 47 l-11 32 5 -37z"/>
<path d="M5818 6643 c16 -32 35 -75 41 -95 15 -47 34 -62 67 -54 16 4 30 19
40 41 18 43 17 71 -1 29 -17 -38 -40 -58 -60 -50 -8 3 -26 31 -40 62 -29 64
-30 70 -12 56 28 -23 89 -32 123 -17 19 8 34 19 34 25 0 7 -6 8 -19 0 -11 -5
-38 -10 -60 -10 -33 0 -49 7 -80 35 -56 51 -66 44 -33 -22z"/>
<path d="M5535 6179 c-20 -91 43 -227 176 -379 108 -123 165 -205 192 -274 24
-62 26 -179 4 -278 -8 -38 -10 -68 -5 -68 21 0 52 96 56 177 8 151 -48 273
-201 441 -105 115 -138 161 -179 248 -20 43 -31 81 -31 114 0 28 -2 50 -3 50
-1 0 -5 -14 -9 -31z"/>
<path d="M2922 6075 c0 -16 2 -22 5 -12 2 9 2 23 0 30 -3 6 -5 -1 -5 -18z"/>
<path d="M5395 5944 c-11 -17 -12 -25 -4 -22 6 2 16 14 20 26 11 29 5 28 -16
-4z"/>
<path d="M3285 3056 c-47 -21 -223 -134 -322 -205 -26 -19 -49 -28 -59 -24
-14 5 -15 1 -10 -25 4 -16 3 -33 -2 -36 -6 -4 -8 3 -5 16 3 15 2 19 -4 11 -7
-10 -23 -10 -68 -3 -62 10 -96 8 -255 -15 -52 -8 -161 -23 -242 -35 -186 -26
-274 -49 -586 -155 -279 -94 -311 -108 -457 -202 -181 -117 -209 -166 -63
-108 73 29 191 57 183 44 -4 -5 -27 -23 -53 -41 -73 -50 -199 -156 -206 -174
-3 -9 -6 -20 -6 -26 0 -19 71 0 154 41 45 22 92 42 106 46 l25 6 -27 -23 c-15
-13 -59 -45 -98 -73 -66 -47 -92 -83 -52 -71 9 2 50 14 90 26 40 12 78 20 85
17 6 -2 -17 -23 -52 -46 -60 -41 -81 -65 -67 -78 3 -3 45 2 93 12 49 9 99 20
113 23 l25 5 -29 -31 c-36 -39 -29 -62 18 -62 34 0 238 70 303 103 18 10 34
17 37 17 3 0 -14 -27 -39 -61 -56 -77 -58 -99 -9 -99 25 0 90 28 232 103 108
56 200 104 205 106 5 2 1 -12 -8 -30 -16 -30 -16 -33 0 -45 33 -25 65 -7 247
133 143 111 252 216 399 384 98 111 130 141 158 149 36 9 182 33 275 45 56 8
96 40 96 79 0 19 -7 27 -26 32 l-25 6 21 23 c12 13 20 31 18 42 -3 15 -12 18
-58 16 l-54 -3 34 35 c28 29 31 35 17 41 -18 6 -78 -11 -117 -34 -14 -8 18 26
70 76 82 79 92 91 70 91 -14 1 -48 -10 -75 -23z m-52 -92 c-51 -47 -93 -92
-93 -100 0 -20 7 -18 69 16 74 41 96 38 46 -4 -22 -19 -36 -38 -32 -42 4 -4
28 -3 52 4 25 7 60 12 78 12 l32 -1 -30 -24 c-16 -14 -42 -30 -57 -36 -43 -18
-37 -40 7 -28 40 11 55 6 55 -20 0 -31 -26 -43 -109 -52 -43 -5 -109 -15 -145
-23 -93 -19 -73 -2 29 24 46 13 82 26 80 31 -3 4 -20 3 -38 -2 -46 -13 -55
-11 -29 7 29 20 28 38 -2 30 -21 -5 -23 -3 -19 17 3 12 13 30 21 40 23 26 7
32 -39 14 -41 -16 -41 -16 -24 3 30 34 9 34 -61 1 -37 -17 -64 -34 -61 -37 3
-3 26 6 52 21 25 15 48 25 51 22 7 -6 -112 -77 -129 -77 -7 0 -3 7 7 15 11 8
16 15 12 15 -4 0 14 21 41 47 65 63 289 213 318 213 6 0 -32 -39 -82 -86z
m-288 -154 c-10 -11 -21 -17 -24 -14 -3 3 3 12 13 20 28 20 32 17 11 -6z m145
-20 c-23 -18 -100 -52 -100 -45 0 6 105 65 115 65 6 0 -1 -9 -15 -20z m-216
-30 c5 -5 19 -10 30 -10 l20 0 -20 -20 c-13 -13 -39 -23 -75 -27 -29 -3 -76
-16 -104 -29 -57 -27 -71 -26 -20 2 19 10 35 24 35 30 0 6 12 17 28 24 37 17
10 26 -30 9 -17 -7 -46 -12 -64 -11 -18 2 -81 -9 -141 -23 -59 -14 -193 -39
-298 -56 -204 -32 -369 -66 -505 -106 -91 -26 -297 -109 -305 -124 -3 -4 27 7
67 25 174 79 395 136 756 196 135 23 275 48 310 56 36 8 66 13 68 11 10 -10
-254 -100 -371 -127 -138 -31 -224 -56 -318 -89 -74 -26 -319 -133 -314 -137
2 -2 52 17 113 42 184 77 517 184 530 172 2 -2 -33 -19 -79 -38 -45 -18 -139
-61 -208 -96 -190 -94 -479 -295 -487 -337 -4 -19 23 -24 34 -5 5 7 3 8 -6 3
-30 -18 -1 16 55 65 148 130 438 293 685 388 201 77 193 70 -144 -113 -202
-109 -396 -222 -396 -231 0 -6 15 2 111 59 92 54 139 79 139 73 0 -2 -19 -15
-42 -29 -54 -32 -113 -92 -99 -101 15 -9 64 13 177 81 116 70 263 151 249 136
-5 -5 -50 -37 -100 -71 -216 -146 -393 -310 -382 -353 3 -10 0 -20 -7 -23
-155 -66 -266 -99 -266 -80 0 5 16 22 35 37 44 35 47 62 8 54 -16 -3 -71 -15
-123 -26 -52 -11 -96 -18 -98 -16 -2 2 15 16 38 32 67 45 110 84 104 94 -6 11
-53 4 -136 -22 -70 -21 -65 -8 15 42 67 42 97 69 97 87 0 21 -51 9 -166 -39
-53 -22 -101 -38 -106 -37 -12 4 83 88 162 143 64 45 110 85 110 97 0 18 -111
-5 -208 -44 -29 -11 -55 -18 -58 -15 -11 11 132 107 231 156 123 60 288 120
566 206 204 63 223 67 483 100 267 34 396 39 420 15z m-188 -65 c-11 -8 -27
-15 -35 -15 -9 1 -2 7 14 15 39 18 44 18 21 0z m179 -14 c-6 -5 -23 -12 -40
-15 l-30 -6 30 14 c35 18 54 20 40 7z m85 -20 c0 -13 -26 -42 -35 -40 -6 1
-30 -3 -54 -10 -23 -7 -45 -11 -47 -9 -2 2 18 20 44 39 31 24 54 34 69 31 13
-2 23 -7 23 -11z m-215 -11 c-16 -11 -34 -20 -40 -20 -5 0 4 9 20 20 17 11 35
20 40 20 6 0 -3 -9 -20 -20z m-185 -32 c0 -7 -19 -23 -41 -36 -22 -13 -38 -26
-36 -29 3 -2 31 11 61 31 63 40 66 41 66 22 0 -16 -115 -70 -130 -61 -6 4 -27
-4 -48 -17 -20 -12 -68 -37 -107 -54 -38 -16 -131 -66 -205 -110 -198 -118
-231 -136 -236 -131 -6 6 97 86 181 139 105 68 267 156 385 210 123 55 110 51
110 36z m334 -100 c-191 -227 -344 -364 -571 -512 -67 -44 -74 -26 -15 36 92
97 83 95 -206 -56 -221 -116 -292 -148 -292 -131 0 14 25 53 66 102 24 28 44
54 44 58 0 4 -13 5 -30 3 -17 -3 -30 -3 -30 -1 0 16 633 464 712 504 65 33 68
34 68 16 0 -7 -46 -39 -102 -72 -166 -96 -337 -213 -400 -273 -117 -111 -49
-94 122 32 256 188 341 241 150 94 -47 -36 -113 -91 -147 -123 -59 -53 -75
-75 -54 -75 13 0 144 89 236 160 44 34 62 45 40 26 -22 -20 -74 -64 -116 -97
-75 -59 -114 -109 -86 -109 7 0 49 23 92 52 54 35 88 51 106 50 28 -3 46 9
206 148 140 122 196 178 189 189 -7 10 83 85 92 77 2 -3 -31 -47 -74 -98z
m-17 62 c-14 -11 -31 -20 -39 -20 -17 1 33 39 51 40 8 0 3 -9 -12 -20z m-282
-19 c-6 -6 -84 -51 -175 -101 -90 -50 -176 -99 -190 -109 -48 -33 -100 -63
-100 -57 0 12 167 115 317 196 149 80 165 88 148 71z m188 -19 c-29 -22 -131
-78 -118 -65 20 20 118 83 129 83 6 0 1 -8 -11 -18z m31 -56 c-16 -14 -33 -26
-39 -26 -5 0 6 13 25 29 42 35 54 32 14 -3z m-414 -1 c0 -2 -10 -9 -22 -15
-22 -11 -22 -10 -4 4 21 17 26 19 26 11z m330 -45 c-6 -10 -32 -34 -58 -52
-26 -18 -96 -69 -157 -113 -60 -45 -123 -90 -140 -99 l-30 -18 26 23 c114 104
335 271 367 278 1 1 -2 -8 -8 -19z m-129 -18 c-40 -27 -151 -111 -221 -165
-36 -28 -56 -41 -45 -28 25 30 267 211 280 210 6 0 -1 -8 -14 -17z m-260 -30
c-14 -9 -135 -97 -270 -196 -259 -188 -280 -202 -263 -170 15 28 128 134 143
134 7 0 62 33 123 74 113 76 277 176 286 175 3 0 -6 -8 -19 -17z m139 14 c0
-2 -26 -20 -57 -41 -32 -21 -101 -70 -153 -110 -100 -75 -120 -89 -120 -82 0
8 123 101 224 169 98 67 106 72 106 64z m100 -119 c0 -2 -12 -14 -27 -28 l-28
-24 24 28 c23 25 31 32 31 24z"/>
<path d="M1684 2184 c-18 -14 -18 -15 4 -4 12 6 22 13 22 15 0 8 -5 6 -26 -11z"/>
<path d="M1614 2144 c-18 -14 -18 -15 4 -4 12 6 22 13 22 15 0 8 -5 6 -26 -11z"/>
</g>
</svg>
